<?xml version="1.0" encoding="utf-8"?>
<!-- Generator: Adobe Illustrator 16.0.4, SVG Export Plug-In . SVG Version: 6.00 Build 0)  -->
<!DOCTYPE svg PUBLIC "-//W3C//DTD SVG 1.1//EN" "http://www.w3.org/Graphics/SVG/1.1/DTD/svg11.dtd">
<svg version="1.1" id="Layer_1" xmlns="http://www.w3.org/2000/svg" xmlns:xlink="http://www.w3.org/1999/xlink" x="0px" y="0px"
	 width="134.5px" height="134.5px" viewBox="0 0 134.5 134.5" enable-background="new 0 0 134.5 134.5" xml:space="preserve">
<circle fill="none" cx="-209.25" cy="396.75" r="66.75"/>
<g>
	<g>
		<path fill="#FFFFFF" d="M20.495,101.893h-3.166v-11.75h3.166V101.893z"/>
		<path fill="#FFFFFF" d="M25.741,101.893h-3.166v-11.75h3.166V101.893z"/>
		<path fill="#FFFFFF" d="M39.925,99.234l0.255,2.334c-1.021,0.352-2.345,0.527-3.968,0.527c-1.885,0-3.213-0.453-3.985-1.363
			c-0.771-0.906-1.157-2.48-1.157-4.715c0-2.236,0.386-3.811,1.157-4.717c0.771-0.908,2.101-1.363,3.985-1.363
			c1.43,0,2.667,0.143,3.712,0.428l-0.239,2.348c-1.158-0.033-2.316-0.051-3.473-0.051c-0.705,0-1.178,0.23-1.423,0.689
			c-0.244,0.459-0.366,1.348-0.366,2.666s0.122,2.205,0.366,2.664c0.245,0.461,0.718,0.689,1.423,0.689
			C37.858,99.371,39.096,99.328,39.925,99.234z"/>
		<path fill="#FFFFFF" d="M45.663,93.189c1.669,0,2.847,0.338,3.534,1.014s1.03,1.83,1.03,3.465c0,1.625-0.343,2.77-1.03,3.434
			c-0.687,0.662-1.864,0.996-3.534,0.996c-1.669,0-2.847-0.334-3.533-0.996c-0.688-0.664-1.03-1.807-1.03-3.434
			c0-1.635,0.346-2.789,1.039-3.465C42.831,93.527,44.006,93.189,45.663,93.189z M45.663,95.369c-0.533,0-0.885,0.15-1.056,0.451
			c-0.17,0.303-0.255,0.918-0.255,1.848c0,0.92,0.085,1.527,0.255,1.824c0.17,0.295,0.522,0.441,1.056,0.441
			c0.522,0,0.872-0.146,1.048-0.441c0.176-0.297,0.264-0.904,0.264-1.824c0-0.93-0.088-1.545-0.264-1.848
			C46.535,95.52,46.186,95.369,45.663,95.369z"/>
		<path fill="#FFFFFF" d="M54.109,93.428l0.254,1.244c1.158-0.988,2.338-1.482,3.542-1.482c0.807,0,1.417,0.201,1.832,0.605
			c0.414,0.402,0.621,0.99,0.621,1.762v6.336h-3.099v-5.365c0-0.273-0.051-0.459-0.153-0.562c-0.103-0.1-0.284-0.152-0.545-0.152
			c-0.489,0-1.096,0.148-1.822,0.441v5.639H51.64V93.43h2.469V93.428z"/>
		<path fill="#FFFFFF" d="M70.983,94.656l-0.97,0.137c0.102,0.326,0.152,0.689,0.152,1.088c0,0.988-0.309,1.684-0.926,2.086
			c-0.619,0.404-1.701,0.604-3.245,0.604c-0.544,0-0.999-0.021-1.362-0.068c-0.126,0.148-0.148,0.324-0.069,0.527
			c0.079,0.205,0.267,0.324,0.563,0.359l3.081,0.273c0.922,0.078,1.581,0.324,1.984,0.738c0.402,0.416,0.604,1.033,0.604,1.85
			c0,1.123-0.344,1.871-1.03,2.246s-1.909,0.562-3.669,0.562c-1.26,0-2.228-0.084-2.904-0.256c-0.675-0.17-1.138-0.422-1.387-0.756
			c-0.25-0.336-0.374-0.822-0.374-1.457c0-0.432,0.099-0.785,0.297-1.062c0.2-0.279,0.543-0.527,1.031-0.742
			c-0.387-0.398-0.531-0.873-0.435-1.42c0.096-0.555,0.371-0.947,0.825-1.186c-0.908-0.385-1.361-1.146-1.361-2.281
			c0-0.988,0.315-1.688,0.944-2.096c0.631-0.408,1.723-0.613,3.278-0.613c0.942,0,1.719,0.08,2.333,0.238h2.792L70.983,94.656z
			 M66.54,101.568l-1.789-0.152c-0.272,0.205-0.409,0.447-0.409,0.732c0,0.307,0.111,0.504,0.332,0.596
			c0.221,0.09,0.684,0.135,1.388,0.135c0.738,0,1.227-0.041,1.463-0.127c0.239-0.084,0.358-0.264,0.358-0.537
			c0-0.236-0.091-0.393-0.271-0.467C67.43,101.672,67.072,101.613,66.54,101.568z M65.994,96.783c0.5,0,0.841-0.061,1.021-0.186
			c0.182-0.127,0.272-0.363,0.272-0.717c0-0.352-0.091-0.586-0.272-0.705c-0.18-0.121-0.522-0.18-1.021-0.18
			c-0.511,0-0.859,0.059-1.047,0.18c-0.188,0.119-0.281,0.354-0.281,0.705c0,0.354,0.094,0.59,0.281,0.717
			C65.135,96.723,65.483,96.783,65.994,96.783z"/>
		<path fill="#FFFFFF" d="M78.664,93.189l-0.272,2.844h-0.817c-0.567,0-1.346,0.121-2.334,0.359v5.5h-3.1V93.43h2.418l0.272,1.242
			c1.101-0.988,2.226-1.48,3.372-1.48h0.461V93.189z"/>
		<path fill="#FFFFFF" d="M85.065,98.469h-2.537c0.08,0.465,0.24,0.787,0.485,0.963s0.639,0.264,1.184,0.264
			c1.032,0,2.14-0.068,3.321-0.205l0.272,1.891c-0.943,0.477-2.254,0.715-3.933,0.715c-1.67,0-2.858-0.352-3.569-1.057
			c-0.708-0.703-1.064-1.816-1.064-3.336c0-1.658,0.349-2.824,1.047-3.502c0.699-0.674,1.877-1.012,3.534-1.012
			c1.487,0,2.561,0.246,3.217,0.742c0.659,0.492,0.994,1.244,1.006,2.256c0.011,0.795-0.21,1.375-0.664,1.736
			C86.91,98.287,86.145,98.469,85.065,98.469z M82.46,96.869h1.737c0.353,0,0.582-0.055,0.689-0.162
			c0.107-0.109,0.162-0.307,0.162-0.588c0-0.332-0.084-0.553-0.255-0.664c-0.171-0.115-0.472-0.172-0.903-0.172
			c-0.532-0.012-0.897,0.086-1.089,0.291C82.608,95.779,82.493,96.209,82.46,96.869z"/>
		<path fill="#FFFFFF" d="M93.121,98.861l-1.977-0.547c-0.828-0.236-1.395-0.562-1.692-0.977C89.149,96.922,89,96.357,89,95.645
			c0-0.84,0.287-1.461,0.859-1.859c0.571-0.395,1.545-0.596,2.921-0.596c1.635,0.025,3.014,0.145,4.137,0.357L96.73,95.42
			c-0.75-0.01-1.852-0.016-3.304-0.016c-0.658,0-1.062,0.014-1.21,0.043c-0.148,0.025-0.221,0.133-0.221,0.312
			c0,0.035,0.003,0.068,0.008,0.104c0.006,0.035,0.018,0.061,0.034,0.086c0.019,0.023,0.034,0.043,0.052,0.059
			c0.019,0.016,0.043,0.035,0.076,0.053c0.035,0.016,0.068,0.033,0.104,0.051c0.033,0.018,0.081,0.031,0.144,0.051
			c0.062,0.018,0.118,0.031,0.17,0.043c0.052,0.01,0.123,0.029,0.213,0.049c0.091,0.023,0.17,0.049,0.238,0.07l2.044,0.545
			c0.771,0.215,1.328,0.508,1.668,0.877c0.342,0.369,0.511,0.912,0.511,1.625c0,1.035-0.3,1.742-0.901,2.131
			c-0.603,0.383-1.635,0.578-3.1,0.578c-1.441,0-2.814-0.109-4.122-0.324l0.188-1.873c0.114,0,0.527,0.002,1.244,0.01
			c0.713,0.006,1.294,0.008,1.736,0.008c0.84,0,1.376-0.025,1.609-0.078c0.233-0.049,0.349-0.17,0.349-0.363
			c0-0.047-0.005-0.088-0.018-0.121c-0.012-0.035-0.033-0.068-0.068-0.102c-0.033-0.035-0.066-0.061-0.093-0.078
			c-0.028-0.016-0.08-0.037-0.153-0.059c-0.075-0.021-0.142-0.043-0.204-0.059c-0.062-0.018-0.153-0.043-0.272-0.076
			C93.334,98.928,93.223,98.895,93.121,98.861z"/>
		<path fill="#FFFFFF" d="M102.332,98.861l-1.977-0.547c-0.827-0.236-1.392-0.562-1.693-0.977c-0.301-0.416-0.451-0.98-0.451-1.693
			c0-0.84,0.288-1.461,0.859-1.859c0.573-0.395,1.547-0.596,2.922-0.596c1.634,0.025,3.013,0.145,4.138,0.357l-0.188,1.873
			c-0.749-0.01-1.851-0.016-3.303-0.016c-0.659,0-1.062,0.014-1.211,0.043c-0.147,0.025-0.221,0.133-0.221,0.312
			c0,0.035,0.003,0.068,0.01,0.104c0.006,0.035,0.017,0.061,0.033,0.086c0.019,0.023,0.034,0.043,0.052,0.059
			c0.019,0.016,0.042,0.035,0.077,0.053c0.032,0.016,0.067,0.033,0.101,0.051c0.035,0.018,0.083,0.031,0.146,0.051
			c0.062,0.018,0.118,0.031,0.168,0.043c0.053,0.01,0.123,0.029,0.214,0.049c0.091,0.023,0.17,0.049,0.237,0.07l2.044,0.545
			c0.771,0.215,1.328,0.508,1.669,0.877s0.512,0.912,0.512,1.625c0,1.035-0.303,1.742-0.903,2.131
			c-0.601,0.383-1.634,0.578-3.1,0.578c-1.441,0-2.814-0.109-4.12-0.324l0.186-1.873c0.114,0,0.528,0.002,1.244,0.01
			c0.716,0.006,1.294,0.008,1.736,0.008c0.842,0,1.376-0.025,1.61-0.078c0.233-0.049,0.348-0.17,0.348-0.363
			c0-0.047-0.005-0.088-0.016-0.121c-0.013-0.035-0.035-0.068-0.068-0.102c-0.035-0.035-0.066-0.061-0.093-0.078
			c-0.028-0.016-0.08-0.037-0.155-0.059c-0.073-0.021-0.142-0.043-0.204-0.059c-0.061-0.018-0.152-0.043-0.271-0.076
			C102.546,98.928,102.435,98.895,102.332,98.861z"/>
		<path fill="#FFFFFF" d="M112.021,93.189c1.667,0,2.847,0.338,3.534,1.014c0.687,0.676,1.029,1.83,1.029,3.465
			c0,1.625-0.343,2.77-1.029,3.434c-0.688,0.662-1.867,0.996-3.534,0.996s-2.848-0.334-3.533-0.996
			c-0.688-0.664-1.031-1.807-1.031-3.434c0-1.635,0.346-2.789,1.039-3.465S110.363,93.189,112.021,93.189z M112.021,95.369
			c-0.533,0-0.886,0.15-1.056,0.451c-0.17,0.303-0.256,0.918-0.256,1.848c0,0.92,0.086,1.527,0.256,1.824
			c0.17,0.295,0.522,0.441,1.056,0.441c0.522,0,0.872-0.146,1.046-0.441c0.178-0.297,0.267-0.904,0.267-1.824
			c0-0.93-0.089-1.545-0.267-1.848C112.893,95.52,112.543,95.369,112.021,95.369z"/>
	</g>
	<g>
		<path fill="#FFFFFF" d="M30.644,71.988l0.551-7.969c2.656,0.04,6.662,0.061,12.017,0.061c2.411,0,4.035-0.542,4.874-1.624
			c0.837-1.083,1.337-3.178,1.501-6.284c-2.002,1.389-4.741,2.085-8.214,2.085c-4.578,0-7.797-1.092-9.656-3.28
			c-1.86-2.186-2.79-5.385-2.79-9.594c0-5.804,1.154-9.891,3.464-12.262c2.309-2.37,6.651-3.555,13.028-3.555
			c3.556,0,6.375,0.287,8.46,0.857c2.084,0.573,3.791,1.707,5.119,3.402c1.328,1.697,2.217,3.862,2.667,6.498
			c0.45,2.636,0.674,6.223,0.674,10.76c0,3.884-0.224,7.123-0.674,9.717c-0.451,2.597-1.114,4.73-1.992,6.406
			c-0.879,1.677-2.125,2.955-3.74,3.832c-1.615,0.879-3.393,1.482-5.333,1.811c-1.942,0.324-4.405,0.488-7.388,0.488
			C38.307,73.336,34.117,72.887,30.644,71.988z M41.372,45.074c0,1.922,0.254,3.147,0.766,3.679c0.51,0.531,1.604,0.796,3.28,0.796
			c1.389,0,2.798-0.368,4.23-1.103c-0.042-4.292-0.297-6.969-0.767-8.031c-0.47-1.062-1.665-1.594-3.586-1.594
			c-1.758,0-2.85,0.398-3.28,1.195C41.587,40.812,41.372,42.499,41.372,45.074z"/>
		<path fill="#FFFFFF" d="M85.94,29.441c6.785,0,11.506,1.584,14.161,4.751c2.656,3.168,3.985,8.92,3.985,17.259
			c0,8.337-1.329,14.091-3.985,17.256c-2.655,3.168-7.376,4.754-14.161,4.754c-6.742,0-11.443-1.586-14.101-4.754
			c-2.657-3.166-3.984-8.919-3.984-17.256c0-8.338,1.327-14.09,3.984-17.259C74.497,31.024,79.198,29.441,85.94,29.441z
			 M85.879,39.311c-1.389,0-2.39,0.256-3.003,0.766c-0.612,0.512-1.072,1.616-1.379,3.312c-0.308,1.696-0.459,4.383-0.459,8.062
			c0,3.678,0.152,6.366,0.459,8.062c0.307,1.697,0.767,2.8,1.379,3.311c0.613,0.511,1.614,0.768,3.003,0.768
			c1.471,0,2.525-0.256,3.158-0.768c0.633-0.51,1.105-1.613,1.409-3.311c0.308-1.694,0.46-4.383,0.46-8.062
			c0-3.679-0.153-6.366-0.46-8.062c-0.304-1.696-0.776-2.799-1.409-3.312C88.404,39.567,87.352,39.311,85.879,39.311z"/>
	</g>
	<g>
		<path fill="#FFFFFF" d="M116.674,84.658H17.828c-0.876,0-1.586-0.709-1.586-1.586c0-0.875,0.71-1.588,1.586-1.588h98.846
			c0.876,0,1.585,0.713,1.585,1.588S117.55,84.658,116.674,84.658z"/>
	</g>
</g>
</svg>
