<?xml version="1.0" encoding="utf-8"?>
<!-- Generator: Adobe Illustrator 16.0.4, SVG Export Plug-In . SVG Version: 6.00 Build 0)  -->
<!DOCTYPE svg PUBLIC "-//W3C//DTD SVG 1.1//EN" "http://www.w3.org/Graphics/SVG/1.1/DTD/svg11.dtd">
<svg version="1.1" id="Layer_1" xmlns="http://www.w3.org/2000/svg" xmlns:xlink="http://www.w3.org/1999/xlink" x="0px" y="0px"
	 width="134.5px" height="134.5px" viewBox="0 0 134.5 134.5" enable-background="new 0 0 134.5 134.5" xml:space="preserve">
<circle fill="none" cx="-209.25" cy="396.75" r="66.75"/>
<path id="trophy-3-icon" fill="#FFFFFF" d="M72.423,82.445c2.134-10.306,17.33-18.214,17.33-48.998H46.284
	c0,30.784,15.197,38.692,17.331,48.998H72.423z M58.733,38.579c0.034,11.37,2.385,23.643,8.309,33.878
	c-7.396-8.54-13.002-19.284-13.646-33.878H58.733z M81.404,96.218v4.335h-26.77v-4.335c6.932,0,8.761-5.817,9.066-9.699
	c0,0,8.344,0,8.637,0C72.643,90.4,74.271,96.218,81.404,96.218z M49.824,66.644c-11.526-4.838-18.399-16.37-19.506-28.554h11.808
	c0.07,1.382,0.167,2.741,0.3,4.072h-7.311c1.225,5.738,4.263,13.378,11.747,18.3C47.791,62.723,48.798,64.77,49.824,66.644z
	 M105.681,38.09c-1.104,12.167-7.96,23.683-19.455,28.534c1.026-1.877,2.034-3.929,2.964-6.196
	c7.446-4.923,10.473-12.542,11.694-18.266H93.61c0.134-1.331,0.231-2.689,0.301-4.072H105.681z"/>
</svg>
