<?xml version="1.0" encoding="utf-8"?>
<!-- Generator: Adobe Illustrator 16.0.4, SVG Export Plug-In . SVG Version: 6.00 Build 0)  -->
<!DOCTYPE svg PUBLIC "-//W3C//DTD SVG 1.1//EN" "http://www.w3.org/Graphics/SVG/1.1/DTD/svg11.dtd">
<svg version="1.1" id="Layer_1" xmlns="http://www.w3.org/2000/svg" xmlns:xlink="http://www.w3.org/1999/xlink" x="0px" y="0px"
	 width="134.5px" height="134.5px" viewBox="0 0 134.5 134.5" enable-background="new 0 0 134.5 134.5" xml:space="preserve">
<circle fill="none" cx="-209.25" cy="396.75" r="66.75"/>
<g>
	<path fill="#FFFFFF" d="M65.678,24.321c6.001,0,10.297,1.797,12.772,5.342c1.76,2.521,2.016,5.146,2.042,5.493v11.651
		c-0.332,1.203-1.63,5.605-3.948,9.98c-4.129,7.792-8.187,9.43-10.866,9.43c-2.665,0-6.706-1.621-10.821-9.346
		c-2.333-4.381-3.657-8.854-3.992-10.065v-11.65c0.026-0.347,0.282-2.972,2.042-5.493C55.38,26.118,59.678,24.321,65.678,24.321
		 M65.678,21.505c-17.142,0-17.629,13.567-17.629,13.567v12.105c0,0,5.524,21.854,17.629,21.854s17.629-21.854,17.629-21.854V35.073
		C83.308,35.073,82.82,21.505,65.678,21.505L65.678,21.505z"/>
	<path fill="#FFFFFF" d="M62.033,107.947L50.73,72.039c0,0,6.475-0.735,7.012-1.353c0.333-0.383,0.179-1.554,0-2.031
		c-0.487-1.3-6.038-0.761-6.038-0.761c-29.653,5.037-26.648,35.504-26.648,35.504c3.656,7.067,14.706,5.035,14.706,5.035
		c7.961,7.638,23.875,6.509,23.875,6.509s19.995,1.129,27.957-6.509c0,0,11.05,2.032,14.706-5.035c0,0,3.006-30.467-26.649-35.504
		c0,0-6.09,0-6.334,1.301c-0.091,0.503-0.457,1.808,0,2.03c1.198,0.583,7.31,0.813,7.31,0.813l-11.618,35.908H62.033z"/>
	<polygon fill="#FFFFFF" points="62.754,84.387 68.522,84.387 70.065,108.354 60.865,108.354 	"/>
	<path fill="#FFFFFF" d="M70.065,78.985c0,1.817-1.473,3.29-3.291,3.29h-2.112c-1.818,0-3.291-1.473-3.291-3.29l0,0
		c0-1.819,1.473-3.292,3.291-3.292h2.112C68.593,75.693,70.065,77.166,70.065,78.985L70.065,78.985z"/>
	<path fill="#FFFFFF" d="M52.436,45.634c14.867-0.249,17.955-7.636,17.955-7.636s2.519,4.874,8.124,4.874l4.793,4.306V35.073
		c0,0-1.218-13.562-17.061-13.562c0,0-14.958-2.037-18.122,12.831v12.836C48.125,47.178,51.223,45.655,52.436,45.634z"/>
</g>
</svg>
