<?xml version="1.0" encoding="UTF-8" standalone="no"?>
<!-- Created with Inkscape (http://www.inkscape.org/) -->

<svg
   xmlns:dc="http://purl.org/dc/elements/1.1/"
   xmlns:cc="http://creativecommons.org/ns#"
   xmlns:rdf="http://www.w3.org/1999/02/22-rdf-syntax-ns#"
   xmlns:svg="http://www.w3.org/2000/svg"
   xmlns="http://www.w3.org/2000/svg"
   version="1.1"
   width="134.5"
   height="134.5"
   viewBox="0 0 134.5 134.5"
   id="Layer_1"
   xml:space="preserve"><metadata
     id="metadata45"><rdf:RDF><cc:Work
         rdf:about=""><dc:format>image/svg+xml</dc:format><dc:type
           rdf:resource="http://purl.org/dc/dcmitype/StillImage" /><dc:title></dc:title></cc:Work></rdf:RDF></metadata><defs
     id="defs43" /><circle
     cx="-209.25"
     cy="396.75"
     r="66.75"
     id="circle3"
     style="fill:none" /><path
     d="m 49.84375,29.84375 c -5.891434,4.2e-5 -9.943156,1.144284 -12.1875,3.46875 -2.204277,2.324543 -3.29008,6.228137 -3.25,11.71875 -2e-6,4.128027 0.892828,7.318168 2.65625,9.5625 1.80349,2.204289 4.881521,3.312514 9.25,3.3125 3.687131,1.4e-5 6.527344,-0.825549 8.53125,-2.46875 -0.160333,3.566929 -0.725657,5.998774 -1.6875,7.28125 -0.961885,1.242417 -2.805984,1.875007 -5.53125,1.875 -4.88949,7e-6 -8.555267,-0.02241 -11,-0.0625 l -0.53125,7.03125 c 3.206209,0.801554 7.042536,1.187499 11.53125,1.1875 2.845499,-10e-7 5.165233,-0.148129 6.96875,-0.46875 1.84355,-0.320622 3.539521,-0.93079 5.0625,-1.8125 1.563002,-0.881707 2.760916,-2.13806 3.5625,-3.78125 0.801522,-1.683257 1.402863,-3.787595 1.84375,-6.3125 0.440822,-2.564959 0.656217,-5.732678 0.65625,-9.5 -3.3e-5,-4.368444 -0.193006,-7.841248 -0.59375,-10.40625 -0.400809,-2.564939 -1.226373,-4.6917 -2.46875,-6.375 -1.20236,-1.683224 -2.808642,-2.782621 -4.8125,-3.34375 -1.963831,-0.601124 -4.633494,-0.906208 -8,-0.90625 z m 23,0.71875 -1.0625,18.625 c -0.04008,0.961887 0.242581,1.809872 0.84375,2.53125 0.601161,0.681341 1.404302,1.067286 2.40625,1.1875 l 6.4375,0.78125 c 2.965734,0.240484 4.957962,0.724947 6,1.40625 1.042,0.64126 1.517635,1.897613 1.4375,3.78125 -0.120253,1.76343 -0.640733,2.974939 -1.5625,3.65625 -0.921805,0.68133 -2.698638,1.031258 -5.34375,1.03125 -2.925683,8e-6 -6.50177,-0.14812 -10.75,-0.46875 l -1.03125,8.46875 c 5.410483,0.801554 10.31019,1.187499 14.71875,1.1875 10.059477,-10e-7 15.09372,-4.513763 15.09375,-13.53125 0.0801,-8.215909 -3.980426,-12.765687 -12.15625,-13.6875 l -6.90625,-0.90625 0.4375,-5.78125 17,0 0.4375,-8.28125 -26,0 z M 49.75,37.9375 c 2.28441,3.4e-5 3.688891,0.655047 4.25,1.9375 0.601143,1.24244 0.92865,4.194764 0.96875,8.84375 -1.803518,1.042043 -3.535505,1.562522 -5.21875,1.5625 -1.923745,2.2e-5 -3.233771,-0.372329 -3.875,-1.09375 C 45.233744,48.426047 44.95991,46.976721 45,44.8125 44.95991,42.167401 45.220149,40.368147 45.78125,39.40625 46.382402,38.444419 47.706022,37.937534 49.75,37.9375 z M 17.8125,81.46875 c -0.876,0 -1.5625,0.71875 -1.5625,1.59375 0,0.877 0.6865,1.59375 1.5625,1.59375 l 98.875,0 c 0.876,0 1.5625,-0.71875 1.5625,-1.59375 0,-0.875 -0.6865,-1.59375 -1.5625,-1.59375 l -98.875,0 z m 22.375,8.9375 c -1.815491,1.2e-5 -3.100059,0.437577 -3.84375,1.3125 -0.743695,0.874943 -1.125001,2.376734 -1.125,4.53125 -10e-7,2.154528 0.381305,3.687568 1.125,4.5625 0.743691,0.87493 2.028259,1.3125 3.84375,1.3125 1.563937,0 2.828191,-0.19221 3.8125,-0.53125 L 43.75,99.375 c -0.798385,0.0875 -1.97669,0.125002 -3.5625,0.125 -0.678079,2e-6 -1.134398,-0.218781 -1.375,-0.65625 -0.229674,-0.4484 -0.343754,-1.325092 -0.34375,-2.59375 -4e-6,-1.268647 0.114076,-2.125025 0.34375,-2.5625 0.240602,-0.448395 0.696921,-0.656241 1.375,-0.65625 1.115534,9e-6 2.228202,-0.0016 3.34375,0.03125 l 0.21875,-2.25 c -1.006182,-0.273405 -2.184486,-0.406238 -3.5625,-0.40625 z m -23.28125,0.1875 0,11.3125 3.0625,0 0,-11.3125 -3.0625,0 z m 5.0625,0 0,11.3125 3.0625,0 0,-11.3125 -3.0625,0 z m 5.0625,0 0,11.3125 3.0625,0 0,-11.3125 -3.0625,0 z m 22.25,2.9375 c -1.596757,8e-6 -2.739115,0.343808 -3.40625,1 -0.667138,0.64527 -1.000001,1.737625 -1,3.3125 -10e-7,1.563946 0.343799,2.66724 1,3.3125 0.667135,0.63433 1.798556,0.96875 3.40625,0.96875 1.607684,0 2.750042,-0.33442 3.40625,-0.96875 0.667128,-0.64526 0.999991,-1.748554 1,-3.3125 -9e-6,-1.574875 -0.332872,-2.66723 -1,-3.3125 -0.656208,-0.656192 -1.798566,-0.999992 -3.40625,-1 z m 11.78125,0 c -1.159293,8e-6 -2.290714,0.486018 -3.40625,1.4375 l -0.25,-1.1875 -2.375,0 0,8.125 2.96875,0 L 58,96.5 c 0.699942,-0.284348 1.310968,-0.437494 1.78125,-0.4375 0.251538,6e-6 0.401564,0.05783 0.5,0.15625 0.09842,0.09844 0.156244,0.268775 0.15625,0.53125 l 0,5.15625 3,0 0,-6.09375 c -9e-6,-0.743687 -0.220352,-1.304709 -0.625,-1.6875 -0.393728,-0.393712 -0.973504,-0.593742 -1.75,-0.59375 z m 7.8125,0 c -1.498327,8e-6 -2.543799,0.200038 -3.15625,0.59375 -0.601518,0.393728 -0.906251,1.079766 -0.90625,2.03125 -10e-7,1.093672 0.437565,1.815657 1.3125,2.1875 -0.437468,0.229673 -0.714071,0.620356 -0.8125,1.15625 -0.08749,0.52496 0.06565,0.96097 0.4375,1.34375 -0.470278,0.2078 -0.803141,0.44533 -1,0.71875 -0.185924,0.26248 -0.28125,0.61566 -0.28125,1.03125 0,0.61245 0.134393,1.08908 0.375,1.40625 0.240606,0.3281 0.667235,0.5547 1.3125,0.71875 0.656198,0.16405 1.598526,0.25 2.8125,0.25 1.695178,0 2.875042,-0.17034 3.53125,-0.53125 0.667128,-0.36091 0.999991,-1.10477 1,-2.1875 -9e-6,-0.78744 -0.200039,-1.35628 -0.59375,-1.75 C 72.523458,100.09535 71.885863,99.857809 71,99.78125 L 68.03125,99.5 C 67.746893,99.467192 67.576553,99.353113 67.5,99.15625 c -0.07656,-0.196857 -0.05781,-0.35782 0.0625,-0.5 0.34997,0.04375 0.787536,0.0625 1.3125,0.0625 1.487381,3e-6 2.503163,-0.179713 3.09375,-0.5625 0.601509,-0.393716 0.906241,-1.079755 0.90625,-2.03125 -9e-6,-0.382777 -0.02658,-0.71408 -0.125,-1.03125 l 0.90625,-0.15625 0.15625,-1.15625 -2.6875,0 c -0.590587,-0.153105 -1.342262,-0.249992 -2.25,-0.25 z m 11.75,0 c -1.104609,8e-6 -2.189147,0.486018 -3.25,1.4375 l -0.25,-1.1875 -2.3125,0 0,8.125 2.96875,0 0,-5.28125 c 0.951486,-0.229665 1.703161,-0.343744 2.25,-0.34375 l 0.78125,0 0.28125,-2.75 -0.46875,0 z m 5.375,0 c -1.596757,8e-6 -2.728179,0.343808 -3.40625,1 -0.667138,0.64527 -1.000001,1.747002 -1,3.34375 -10e-7,1.465516 0.353176,2.54068 1.03125,3.21875 0.689008,0.67807 1.829806,1.03125 3.4375,1.03125 1.618621,0 2.873498,-0.22816 3.78125,-0.6875 l -0.25,-1.84375 c -1.137421,0.131242 -2.223519,0.218752 -3.21875,0.21875 -0.524965,2e-6 -0.884398,-0.08595 -1.125,-0.25 -0.229674,-0.174984 -0.392197,-0.489094 -0.46875,-0.9375 l 2.4375,0 c 1.038977,3e-6 1.781275,-0.181273 2.21875,-0.53125 0.437458,-0.349969 0.667178,-0.890678 0.65625,-1.65625 C 90.082804,95.464143 89.759318,94.720284 89.125,94.25 88.490666,93.768795 87.432698,93.531258 86,93.53125 z m 8.65625,0 c -1.32334,8e-6 -2.254732,0.210975 -2.8125,0.59375 -0.546834,0.382791 -0.8125,0.971943 -0.8125,1.78125 0,0.689016 0.121896,1.220348 0.40625,1.625 0.295289,0.393724 0.857871,0.707834 1.65625,0.9375 L 95,99 c 0.09843,0.03281 0.203129,0.06094 0.3125,0.09375 0.120298,0.03281 0.195312,0.07188 0.25,0.09375 0.06561,0.01094 0.121875,0.0094 0.1875,0.03125 0.07655,0.02188 0.134371,0.04063 0.15625,0.0625 0.0328,0.01094 0.06094,0.06094 0.09375,0.09375 0.0328,0.03281 0.05156,0.06094 0.0625,0.09375 0.01093,0.03281 0.03124,0.05001 0.03125,0.09375 -6e-6,0.185926 -0.114085,0.320319 -0.34375,0.375 C 95.531262,99.981249 94.996809,100 94.1875,100 l -1.65625,0 c -0.689012,-0.01094 -1.078134,-0.03125 -1.1875,-0.03125 l -0.1875,1.8125 c 1.257715,0.2078 2.57979,0.3125 3.96875,0.3125 1.410825,0 2.389099,-0.19065 2.96875,-0.5625 0.579635,-0.37185 0.874992,-1.03601 0.875,-2.03125 -8e-6,-0.689007 -0.171908,-1.212523 -0.5,-1.5625 C 98.140642,97.576594 97.618687,97.301551 96.875,97.09375 L 94.90625,96.5625 c -0.06562,-0.02187 -0.131261,-0.04062 -0.21875,-0.0625 -0.0875,-0.02187 -0.164071,-0.05156 -0.21875,-0.0625 -0.04375,-0.01093 -0.09063,-0.02031 -0.15625,-0.03125 -0.05469,-0.02187 -0.123444,-0.05156 -0.15625,-0.0625 -0.03281,-0.02187 -0.06094,-0.02031 -0.09375,-0.03125 -0.03281,-0.02187 -0.04063,-0.05156 -0.0625,-0.0625 -0.01094,-0.02187 -0.04063,-0.04062 -0.0625,-0.0625 -0.01094,-0.02187 -0.02032,-0.02968 -0.03125,-0.0625 l 0,-0.125 c -3e-6,-0.174981 0.07657,-0.25937 0.21875,-0.28125 0.142173,-0.0328 0.521919,-0.06249 1.15625,-0.0625 1.399888,6e-6 2.465672,0.02032 3.1875,0.03125 l 0.1875,-1.8125 c -1.082737,-0.207789 -2.425125,-0.321868 -4,-0.34375 z m 8.875,0 c -1.32334,8e-6 -2.25473,0.210975 -2.8125,0.59375 -0.54683,0.382791 -0.8125,0.971943 -0.8125,1.78125 0,0.689016 0.1219,1.220348 0.40625,1.625 0.29529,0.393724 0.85787,0.707834 1.65625,0.9375 L 103.875,99 c 0.0984,0.03281 0.20313,0.06094 0.3125,0.09375 0.1203,0.03281 0.19531,0.07188 0.25,0.09375 0.0656,0.01094 0.12187,0.0094 0.1875,0.03125 0.0765,0.02188 0.13437,0.04063 0.15625,0.0625 0.0328,0.01094 0.0609,0.06094 0.0937,0.09375 0.0328,0.03281 0.0516,0.06094 0.0625,0.09375 0.0109,0.03281 0.0312,0.05001 0.0312,0.09375 -1e-5,0.185926 -0.11409,0.320319 -0.34375,0.375 -0.21874,0.04375 -0.75319,0.0625 -1.5625,0.0625 l -1.65625,0 c -0.68901,-0.01094 -1.07813,-0.03125 -1.1875,-0.03125 l -0.1875,1.8125 c 1.25772,0.2078 2.57979,0.3125 3.96875,0.3125 1.41082,0 2.3891,-0.19065 2.96875,-0.5625 0.57964,-0.37185 0.87499,-1.03601 0.875,-2.03125 -1e-5,-0.689007 -0.17191,-1.212523 -0.5,-1.5625 -0.32811,-0.360906 -0.85006,-0.635949 -1.59375,-0.84375 l -1.96875,-0.53125 c -0.0656,-0.02187 -0.13126,-0.04062 -0.21875,-0.0625 -0.0875,-0.02187 -0.16407,-0.05156 -0.21875,-0.0625 -0.0438,-0.01093 -0.0906,-0.02031 -0.15625,-0.03125 -0.0547,-0.02187 -0.12344,-0.05156 -0.15625,-0.0625 -0.0328,-0.02187 -0.0609,-0.02031 -0.0937,-0.03125 -0.0328,-0.02187 -0.0406,-0.05156 -0.0625,-0.0625 -0.0109,-0.02187 -0.0406,-0.04062 -0.0625,-0.0625 -0.0109,-0.02187 -0.0203,-0.02968 -0.0312,-0.0625 l 0,-0.125 c 0,-0.174981 0.0766,-0.25937 0.21875,-0.28125 0.14217,-0.0328 0.52192,-0.06249 1.15625,-0.0625 1.39989,6e-6 2.46567,0.02032 3.1875,0.03125 l 0.1875,-1.8125 c -1.08274,-0.207789 -2.42513,-0.321868 -4,-0.34375 z m 9.65625,0 c -1.59676,8e-6 -2.70787,0.343808 -3.375,1 -0.66714,0.64527 -1,1.737625 -1,3.3125 0,1.563946 0.31255,2.66724 0.96875,3.3125 0.66713,0.63433 1.79856,0.96875 3.40625,0.96875 1.60768,0 2.75004,-0.33442 3.40625,-0.96875 0.66713,-0.64526 0.99999,-1.748554 1,-3.3125 -1e-5,-1.574875 -0.33287,-2.66723 -1,-3.3125 -0.65621,-0.656192 -1.79857,-0.999992 -3.40625,-1 z m -44.3125,1.75 c 0.481208,7e-6 0.793758,0.0672 0.96875,0.1875 0.174981,0.109373 0.281244,0.317219 0.28125,0.65625 -6e-6,0.339042 -0.106269,0.567202 -0.28125,0.6875 -0.174992,0.120308 -0.487542,0.187505 -0.96875,0.1875 -0.492154,5e-6 -0.84533,-0.06719 -1.03125,-0.1875 -0.17499,-0.120298 -0.250003,-0.348458 -0.25,-0.6875 -3e-6,-0.339031 0.07501,-0.546877 0.25,-0.65625 0.18592,-0.120297 0.539096,-0.187493 1.03125,-0.1875 z m 17.21875,0.28125 c 0.415588,6e-6 0.710944,0.04689 0.875,0.15625 0.164044,0.109373 0.249994,0.307842 0.25,0.625 -6e-6,0.273422 -0.07814,0.484388 -0.1875,0.59375 -0.09844,0.09843 -0.317219,0.156255 -0.65625,0.15625 l -1.65625,0 c 0.03281,-0.634321 0.126573,-1.053134 0.3125,-1.25 0.185919,-0.196854 0.548472,-0.29218 1.0625,-0.28125 z m -36.8125,0.0625 c 0.503081,6e-6 0.835944,0.173466 1,0.46875 0.174981,0.284359 0.249994,0.853198 0.25,1.75 -6e-6,0.885874 -0.07502,1.465649 -0.25,1.75 -0.164056,0.284355 -0.496919,0.4375 -1,0.4375 -0.514028,0 -0.867204,-0.153145 -1.03125,-0.4375 -0.164054,-0.284351 -0.250004,-0.864126 -0.25,-1.75 -4e-6,-0.896802 0.08595,-1.465641 0.25,-1.75 0.164046,-0.295284 0.517222,-0.468744 1.03125,-0.46875 z m 63.90625,0 c 0.50308,6e-6 0.83594,0.173466 1,0.46875 0.17498,0.284359 0.28124,0.853198 0.28125,1.75 -1e-5,0.885874 -0.10627,1.465649 -0.28125,1.75 -0.16406,0.284355 -0.49692,0.4375 -1,0.4375 -0.51403,0 -0.83595,-0.153145 -1,-0.4375 -0.16405,-0.284351 -0.25,-0.864126 -0.25,-1.75 0,-0.896802 0.0859,-1.465641 0.25,-1.75 0.16405,-0.295284 0.48597,-0.468744 1,-0.46875 z m -45.53125,5.84375 1.71875,0.125 c 0.514018,0.0438 0.887507,0.11094 1.0625,0.1875 0.17498,0.0656 0.249994,0.20783 0.25,0.4375 -6e-6,0.26248 -0.114086,0.45469 -0.34375,0.53125 -0.229676,0.0875 -0.695372,0.125 -1.40625,0.125 -0.678078,0 -1.12502,-0.0375 -1.34375,-0.125 -0.2078,-0.0875 -0.312503,-0.29846 -0.3125,-0.59375 -3e-6,-0.27342 0.112517,-0.49064 0.375,-0.6875 z"
     id="text3794"
     style="font-size:60.11655807px;font-style:normal;font-variant:normal;font-weight:800;font-stretch:normal;text-align:start;line-height:125%;letter-spacing:0px;word-spacing:0px;writing-mode:lr-tb;text-anchor:start;fill:#ffffff;fill-opacity:1;stroke:none;font-family:Exo 2;-inkscape-font-specification:Exo 2 Ultra-Bold" /></svg>