<?xml version="1.0" encoding="utf-8"?>
<!-- Generator: Adobe Illustrator 16.0.4, SVG Export Plug-In . SVG Version: 6.00 Build 0)  -->
<!DOCTYPE svg PUBLIC "-//W3C//DTD SVG 1.1//EN" "http://www.w3.org/Graphics/SVG/1.1/DTD/svg11.dtd">
<svg version="1.1" id="Layer_1" xmlns="http://www.w3.org/2000/svg" xmlns:xlink="http://www.w3.org/1999/xlink" x="0px" y="0px"
	 width="134.5px" height="134.5px" viewBox="0 0 134.5 134.5" enable-background="new 0 0 134.5 134.5" xml:space="preserve">
<circle fill="none" cx="-209.25" cy="396.75" r="66.75"/>
<g>
	<path fill="#FFFFFF" d="M56.368,76.835H42.621V49.341c0-2.333,0.168-4.221,0.509-5.665l-10.119,1.973l-1.592-8.464l11.202-4.265
		h13.747V76.835z"/>
	<path fill="#FFFFFF" d="M103.081,59.142v7.51l-4.901,1.272h-0.126v8.911H85.516v-8.911h-17.63c-1.823,0-3.224-0.668-4.2-2.004
		c-0.977-1.336-1.146-2.853-0.51-4.551l10.629-28.448h12.729l-8.911,24.63c-0.169,0.467-0.149,0.848,0.063,1.146
		c0.212,0.296,0.551,0.444,1.019,0.444h6.811V48.323l2.227-6.747h10.312v17.565H103.081z"/>
</g>
<g>
	<path fill="#FFFFFF" d="M118.557,89.353H15.942c-0.908,0-1.646-0.738-1.646-1.647c0-0.908,0.738-1.646,1.646-1.646h102.614
		c0.911,0,1.647,0.738,1.647,1.646C120.204,88.614,119.468,89.353,118.557,89.353z"/>
</g>
<g>
	<path fill="#FFFFFF" d="M23.65,95.045l-3.129,11.296c-0.06,0.271-0.195,0.488-0.407,0.653c-0.212,0.166-0.46,0.248-0.743,0.248
		h-2.952c-0.283,0-0.53-0.082-0.742-0.248c-0.212-0.165-0.348-0.382-0.407-0.653l-3.129-11.296h3.412l1.874,8.326
		c0.094,0.448,0.176,0.908,0.247,1.379h0.442c0.023-0.235,0.106-0.695,0.248-1.379l1.856-8.326H23.65z"/>
	<path fill="#FFFFFF" d="M28.051,107.242h-3.288V95.045h3.288V107.242z"/>
	<path fill="#FFFFFF" d="M42.776,104.485l0.265,2.421c-1.06,0.365-2.434,0.549-4.118,0.549c-1.956,0-3.335-0.472-4.136-1.414
		c-0.802-0.943-1.203-2.575-1.203-4.896s0.401-3.954,1.203-4.897c0.801-0.942,2.18-1.414,4.136-1.414
		c1.484,0,2.77,0.147,3.854,0.442l-0.248,2.438c-1.202-0.035-2.404-0.053-3.606-0.053c-0.73,0-1.223,0.238-1.476,0.716
		s-0.38,1.399-0.38,2.768c0,1.366,0.127,2.289,0.38,2.766c0.253,0.478,0.746,0.717,1.476,0.717
		C40.631,104.627,41.916,104.579,42.776,104.485z"/>
	<path fill="#FFFFFF" d="M48.733,98.21c1.733,0,2.955,0.351,3.668,1.051c0.714,0.701,1.07,1.9,1.07,3.598
		c0,1.686-0.356,2.872-1.07,3.562c-0.713,0.689-1.935,1.034-3.668,1.034c-1.732,0-2.955-0.345-3.668-1.034
		c-0.712-0.69-1.069-1.877-1.069-3.562c0-1.697,0.36-2.896,1.078-3.598C45.792,98.561,47.013,98.21,48.733,98.21z M48.733,100.472
		c-0.553,0-0.918,0.157-1.095,0.469c-0.178,0.312-0.266,0.952-0.266,1.918c0,0.955,0.088,1.585,0.266,1.892
		c0.177,0.307,0.542,0.459,1.095,0.459c0.542,0,0.905-0.152,1.087-0.459c0.183-0.307,0.275-0.937,0.275-1.892
		c0-0.966-0.092-1.605-0.275-1.918C49.638,100.629,49.275,100.472,48.733,100.472z"/>
	<path fill="#FFFFFF" d="M57.501,98.456l0.266,1.291c1.202-1.024,2.428-1.537,3.677-1.537c0.836,0,1.469,0.209,1.899,0.626
		c0.431,0.419,0.646,1.029,0.646,1.831v6.575h-3.217v-5.568c0-0.283-0.053-0.477-0.159-0.583c-0.106-0.105-0.294-0.159-0.566-0.159
		c-0.507,0-1.137,0.152-1.892,0.459v5.852h-3.216v-8.786H57.501z"/>
	<path fill="#FFFFFF" d="M75.021,99.73l-1.009,0.14c0.106,0.343,0.158,0.72,0.158,1.132c0,1.026-0.321,1.748-0.962,2.165
		c-0.643,0.419-1.766,0.628-3.368,0.628c-0.566,0-1.038-0.023-1.414-0.07c-0.13,0.153-0.153,0.336-0.07,0.548
		c0.082,0.213,0.275,0.336,0.582,0.371l3.201,0.283c0.955,0.082,1.641,0.339,2.059,0.77c0.419,0.43,0.628,1.068,0.628,1.917
		c0,1.167-0.357,1.945-1.07,2.334s-1.981,0.584-3.809,0.584c-1.309,0-2.312-0.09-3.015-0.266c-0.701-0.177-1.183-0.439-1.44-0.788
		c-0.259-0.347-0.389-0.851-0.389-1.51c0-0.448,0.104-0.817,0.311-1.105c0.204-0.288,0.562-0.545,1.068-0.769
		c-0.4-0.413-0.552-0.904-0.451-1.477c0.101-0.571,0.386-0.98,0.857-1.229c-0.942-0.4-1.414-1.189-1.414-2.369
		c0-1.024,0.327-1.75,0.98-2.174c0.654-0.425,1.789-0.636,3.403-0.636c0.979,0,1.785,0.082,2.423,0.246h2.898L75.021,99.73z
		 M70.405,106.906l-1.855-0.159c-0.284,0.213-0.424,0.466-0.424,0.761c0,0.317,0.114,0.524,0.345,0.618
		c0.229,0.094,0.709,0.142,1.44,0.142c0.766,0,1.272-0.044,1.521-0.133c0.246-0.088,0.371-0.273,0.371-0.557
		c0-0.247-0.096-0.409-0.283-0.486C71.331,107.017,70.96,106.954,70.405,106.906z M69.84,101.938c0.519,0,0.872-0.064,1.061-0.193
		c0.188-0.13,0.283-0.378,0.283-0.743c0-0.364-0.095-0.61-0.283-0.733s-0.542-0.186-1.061-0.186c-0.53,0-0.893,0.062-1.088,0.186
		c-0.194,0.123-0.29,0.369-0.29,0.733c0,0.365,0.096,0.613,0.29,0.743C68.947,101.874,69.31,101.938,69.84,101.938z"/>
	<path fill="#FFFFFF" d="M82.991,98.21l-0.282,2.951H81.86c-0.59,0-1.396,0.125-2.423,0.371v5.71h-3.216v-8.786h2.509l0.283,1.291
		c1.144-1.024,2.311-1.537,3.5-1.537H82.991z"/>
	<path fill="#FFFFFF" d="M89.639,103.689h-2.634c0.081,0.483,0.25,0.816,0.503,0.998c0.254,0.184,0.663,0.274,1.229,0.274
		c1.073,0,2.221-0.07,3.447-0.212l0.283,1.962c-0.979,0.495-2.34,0.743-4.083,0.743c-1.733,0-2.968-0.365-3.704-1.097
		c-0.736-0.73-1.104-1.886-1.104-3.465c0-1.72,0.362-2.932,1.087-3.633c0.725-0.7,1.947-1.051,3.668-1.051
		c1.544,0,2.658,0.256,3.341,0.769c0.684,0.513,1.031,1.294,1.044,2.343c0.011,0.824-0.219,1.425-0.69,1.803
		C91.553,103.501,90.757,103.689,89.639,103.689z M86.934,102.028h1.803c0.365,0,0.604-0.057,0.717-0.169
		c0.111-0.112,0.168-0.314,0.168-0.609c0-0.342-0.089-0.571-0.266-0.689c-0.178-0.117-0.489-0.178-0.937-0.178
		c-0.555-0.01-0.932,0.089-1.132,0.301C87.086,100.896,86.97,101.345,86.934,102.028z"/>
	<path fill="#FFFFFF" d="M97.999,104.096l-2.05-0.565c-0.861-0.248-1.447-0.586-1.76-1.017c-0.312-0.431-0.468-1.017-0.468-1.759
		c0-0.872,0.297-1.515,0.893-1.927c0.595-0.412,1.606-0.618,3.031-0.618c1.697,0.023,3.129,0.146,4.296,0.371l-0.194,1.943
		c-0.778-0.012-1.921-0.017-3.429-0.017c-0.684,0-1.104,0.015-1.256,0.044c-0.153,0.029-0.229,0.139-0.229,0.327
		c0,0.035,0.003,0.069,0.009,0.106c0.006,0.034,0.018,0.064,0.035,0.088s0.036,0.044,0.053,0.062
		c0.019,0.017,0.044,0.034,0.079,0.052c0.036,0.018,0.071,0.036,0.106,0.053c0.036,0.019,0.086,0.036,0.15,0.054
		s0.124,0.032,0.177,0.044c0.053,0.013,0.127,0.029,0.222,0.053c0.094,0.024,0.177,0.048,0.247,0.071l2.121,0.566
		c0.801,0.224,1.379,0.527,1.731,0.91c0.354,0.383,0.531,0.945,0.531,1.688c0,1.072-0.312,1.808-0.937,2.208
		c-0.625,0.401-1.697,0.602-3.217,0.602c-1.497,0-2.924-0.111-4.279-0.336l0.195-1.944c0.117,0,0.547,0.003,1.291,0.009
		c0.742,0.006,1.343,0.009,1.803,0.009c0.871,0,1.428-0.026,1.67-0.08c0.241-0.052,0.362-0.179,0.362-0.379
		c0-0.048-0.006-0.088-0.017-0.124c-0.013-0.035-0.035-0.07-0.071-0.105c-0.035-0.036-0.068-0.062-0.098-0.08
		s-0.083-0.039-0.158-0.062c-0.077-0.022-0.148-0.043-0.213-0.062c-0.065-0.018-0.159-0.044-0.283-0.079
		C98.221,104.166,98.105,104.131,97.999,104.096z"/>
	<path fill="#FFFFFF" d="M107.562,104.096l-2.05-0.565c-0.861-0.248-1.447-0.586-1.76-1.017s-0.469-1.017-0.469-1.759
		c0-0.872,0.298-1.515,0.894-1.927c0.595-0.412,1.606-0.618,3.031-0.618c1.697,0.023,3.129,0.146,4.295,0.371l-0.193,1.943
		c-0.778-0.012-1.921-0.017-3.43-0.017c-0.684,0-1.103,0.015-1.255,0.044c-0.153,0.029-0.23,0.139-0.23,0.327
		c0,0.035,0.004,0.069,0.01,0.106c0.005,0.034,0.017,0.064,0.035,0.088c0.018,0.023,0.034,0.044,0.053,0.062
		c0.019,0.017,0.044,0.034,0.079,0.052s0.071,0.036,0.106,0.053c0.035,0.019,0.085,0.036,0.15,0.054
		c0.064,0.018,0.123,0.032,0.177,0.044c0.053,0.013,0.127,0.029,0.222,0.053c0.094,0.024,0.177,0.048,0.246,0.071l2.122,0.566
		c0.801,0.224,1.379,0.527,1.731,0.91c0.354,0.383,0.531,0.945,0.531,1.688c0,1.072-0.312,1.808-0.938,2.208
		c-0.624,0.401-1.696,0.602-3.217,0.602c-1.497,0-2.923-0.111-4.278-0.336l0.195-1.944c0.117,0,0.547,0.003,1.29,0.009
		c0.742,0.006,1.344,0.009,1.803,0.009c0.872,0,1.429-0.026,1.671-0.08c0.241-0.052,0.362-0.179,0.362-0.379
		c0-0.048-0.006-0.088-0.018-0.124c-0.012-0.035-0.036-0.07-0.071-0.105c-0.035-0.036-0.067-0.062-0.097-0.08
		s-0.083-0.039-0.16-0.062c-0.075-0.022-0.146-0.043-0.211-0.062c-0.065-0.018-0.16-0.044-0.283-0.079
		C107.783,104.166,107.669,104.131,107.562,104.096z"/>
	<path fill="#FFFFFF" d="M117.62,98.21c1.733,0,2.956,0.351,3.669,1.051c0.713,0.701,1.069,1.9,1.069,3.598
		c0,1.686-0.356,2.872-1.069,3.562c-0.713,0.689-1.936,1.034-3.669,1.034c-1.731,0-2.954-0.345-3.668-1.034
		c-0.713-0.69-1.069-1.877-1.069-3.562c0-1.697,0.36-2.896,1.078-3.598C114.68,98.561,115.9,98.21,117.62,98.21z M117.62,100.472
		c-0.554,0-0.919,0.157-1.096,0.469c-0.176,0.312-0.266,0.952-0.266,1.918c0,0.955,0.09,1.585,0.266,1.892
		c0.177,0.307,0.542,0.459,1.096,0.459c0.543,0,0.905-0.152,1.088-0.459s0.274-0.937,0.274-1.892c0-0.966-0.092-1.605-0.274-1.918
		C118.525,100.629,118.163,100.472,117.62,100.472z"/>
</g>
</svg>
