<?xml version="1.0" encoding="UTF-8" standalone="no"?>
<!-- Created with Inkscape (http://www.inkscape.org/) -->

<svg
   xmlns:dc="http://purl.org/dc/elements/1.1/"
   xmlns:cc="http://creativecommons.org/ns#"
   xmlns:rdf="http://www.w3.org/1999/02/22-rdf-syntax-ns#"
   xmlns:svg="http://www.w3.org/2000/svg"
   xmlns="http://www.w3.org/2000/svg"
   version="1.1"
   width="134.5"
   height="134.5"
   viewBox="0 0 134.5 134.5"
   id="Layer_1"
   xml:space="preserve"><metadata
     id="metadata45"><rdf:RDF><cc:Work
         rdf:about=""><dc:format>image/svg+xml</dc:format><dc:type
           rdf:resource="http://purl.org/dc/dcmitype/StillImage" /><dc:title></dc:title></cc:Work></rdf:RDF></metadata><defs
     id="defs43" /><g
     transform="matrix(0.95451012,0,0,0.95451012,6.4358756,0.62901123)"
     id="g3112"><g
       transform="translate(-0.2903559,0)"
       id="g3072"><path
         d="M 15.011,102.197 H 11.818 V 90.354 h 3.193 v 11.843 z"
         id="path3074"
         style="fill:#ffffff" /><path
         d="m 27.266,90.354 -3.038,10.969 c -0.058,0.263 -0.189,0.475 -0.395,0.634 -0.207,0.161 -0.446,0.24 -0.721,0.24 h -2.866 c -0.275,0 -0.515,-0.079 -0.721,-0.24 -0.206,-0.159 -0.337,-0.371 -0.395,-0.634 L 16.091,90.354 h 3.313 l 1.819,8.084 c 0.091,0.436 0.171,0.882 0.24,1.34 h 0.429 c 0.023,-0.229 0.104,-0.676 0.241,-1.34 l 1.802,-8.084 h 3.331 z"
         id="path3076"
         style="fill:#ffffff" /><path
         d="m 40.174,99.52 0.257,2.353 c -1.03,0.354 -2.363,0.531 -3.999,0.531 -1.9,0 -3.239,-0.457 -4.017,-1.372 -0.778,-0.915 -1.167,-2.501 -1.167,-4.755 0,-2.254 0.389,-3.839 1.167,-4.754 0.778,-0.916 2.117,-1.374 4.017,-1.374 1.442,0 2.689,0.144 3.742,0.429 l -0.24,2.369 c -1.167,-0.034 -2.334,-0.051 -3.501,-0.051 -0.709,0 -1.188,0.231 -1.433,0.694 -0.247,0.464 -0.369,1.359 -0.369,2.687 0,1.328 0.123,2.223 0.369,2.687 0.246,0.463 0.724,0.695 1.433,0.695 1.658,-0.001 2.905,-0.047 3.741,-0.139 z"
         id="path3078"
         style="fill:#ffffff" /><path
         d="m 45.958,93.427 c 1.683,0 2.87,0.341 3.562,1.021 0.692,0.682 1.039,1.846 1.039,3.493 0,1.636 -0.346,2.789 -1.039,3.459 -0.692,0.669 -1.879,1.003 -3.562,1.003 -1.681,0 -2.869,-0.334 -3.561,-1.003 -0.693,-0.67 -1.038,-1.823 -1.038,-3.459 0,-1.647 0.349,-2.812 1.046,-3.493 0.698,-0.68 1.882,-1.021 3.553,-1.021 z m 0,2.197 c -0.538,0 -0.892,0.151 -1.064,0.454 -0.171,0.305 -0.257,0.925 -0.257,1.863 0,0.927 0.086,1.539 0.257,1.837 0.172,0.298 0.526,0.446 1.064,0.446 0.527,0 0.878,-0.148 1.056,-0.446 0.177,-0.298 0.266,-0.91 0.266,-1.837 0,-0.938 -0.088,-1.559 -0.266,-1.863 -0.178,-0.303 -0.53,-0.454 -1.056,-0.454 z"
         id="path3080"
         style="fill:#ffffff" /><path
         d="m 54.471,93.668 0.258,1.253 c 1.167,-0.996 2.357,-1.494 3.57,-1.494 0.812,0 1.427,0.203 1.845,0.609 0.417,0.406 0.626,0.998 0.626,1.777 v 6.384 h -3.124 v -5.406 c 0,-0.274 -0.051,-0.463 -0.154,-0.566 -0.103,-0.103 -0.287,-0.154 -0.549,-0.154 -0.492,0 -1.104,0.148 -1.837,0.446 v 5.681 h -3.124 v -8.529 h 2.489 z"
         id="path3082"
         style="fill:#ffffff" /><path
         d="m 71.48,94.903 -0.979,0.138 c 0.104,0.332 0.155,0.697 0.155,1.098 0,0.996 -0.312,1.696 -0.936,2.103 -0.624,0.407 -1.714,0.609 -3.271,0.609 -0.548,0 -1.006,-0.022 -1.373,-0.068 -0.126,0.149 -0.149,0.326 -0.068,0.532 0.079,0.205 0.268,0.326 0.566,0.36 l 3.107,0.275 c 0.927,0.08 1.593,0.328 1.999,0.746 0.406,0.418 0.609,1.038 0.609,1.862 0,1.133 -0.346,1.888 -1.038,2.266 -0.692,0.378 -1.926,0.566 -3.699,0.566 -1.271,0 -2.246,-0.086 -2.927,-0.258 -0.681,-0.171 -1.148,-0.427 -1.399,-0.764 -0.252,-0.337 -0.378,-0.826 -0.378,-1.467 0,-0.436 0.101,-0.792 0.3,-1.073 0.201,-0.28 0.547,-0.529 1.039,-0.747 -0.389,-0.4 -0.535,-0.878 -0.437,-1.434 0.097,-0.554 0.374,-0.951 0.832,-1.192 -0.915,-0.389 -1.374,-1.155 -1.374,-2.3 0,-0.996 0.318,-1.699 0.953,-2.111 0.635,-0.412 1.736,-0.618 3.303,-0.618 0.951,0 1.734,0.08 2.353,0.241 h 2.814 l -0.151,1.236 z m -4.48,6.969 -1.801,-0.154 c -0.275,0.206 -0.413,0.451 -0.413,0.738 0,0.309 0.112,0.508 0.335,0.601 0.224,0.091 0.69,0.137 1.399,0.137 0.744,0 1.235,-0.042 1.476,-0.128 0.241,-0.087 0.361,-0.267 0.361,-0.541 0,-0.24 -0.092,-0.397 -0.274,-0.472 -0.184,-0.075 -0.544,-0.136 -1.083,-0.181 z m -0.549,-4.823 c 0.504,0 0.848,-0.063 1.03,-0.189 0.184,-0.126 0.274,-0.365 0.274,-0.721 0,-0.354 -0.091,-0.592 -0.274,-0.713 -0.183,-0.119 -0.526,-0.18 -1.03,-0.18 -0.514,0 -0.866,0.061 -1.055,0.18 -0.189,0.121 -0.283,0.359 -0.283,0.713 0,0.355 0.094,0.595 0.283,0.721 0.189,0.126 0.542,0.189 1.055,0.189 z"
         id="path3084"
         style="fill:#ffffff" /><path
         d="m 79.222,93.427 -0.274,2.867 h -0.824 c -0.572,0 -1.355,0.119 -2.351,0.359 v 5.544 h -3.125 v -8.529 h 2.438 l 0.275,1.253 c 1.109,-0.996 2.242,-1.494 3.398,-1.494 h 0.463 z"
         id="path3086"
         style="fill:#ffffff" /><path
         d="m 85.676,98.748 h -2.559 c 0.081,0.469 0.244,0.793 0.49,0.97 0.247,0.178 0.644,0.266 1.193,0.266 1.041,0 2.156,-0.068 3.346,-0.205 l 0.276,1.904 c -0.951,0.481 -2.272,0.721 -3.967,0.721 -1.681,0 -2.88,-0.354 -3.595,-1.063 -0.716,-0.709 -1.073,-1.831 -1.073,-3.364 0,-1.671 0.352,-2.846 1.057,-3.527 0.702,-0.681 1.891,-1.021 3.561,-1.021 1.498,0 2.58,0.249 3.244,0.746 0.663,0.499 1.001,1.257 1.013,2.275 0.012,0.801 -0.212,1.385 -0.67,1.75 -0.458,0.365 -1.229,0.548 -2.316,0.548 z m -2.627,-1.613 h 1.752 c 0.354,0 0.586,-0.054 0.694,-0.164 0.108,-0.107 0.163,-0.306 0.163,-0.591 0,-0.332 -0.086,-0.555 -0.257,-0.67 -0.172,-0.114 -0.476,-0.172 -0.91,-0.172 -0.538,-0.011 -0.904,0.086 -1.098,0.292 -0.195,0.206 -0.309,0.641 -0.344,1.305 z"
         id="path3088"
         style="fill:#ffffff" /><path
         d="m 93.794,99.143 -1.99,-0.549 c -0.836,-0.24 -1.404,-0.569 -1.708,-0.986 -0.304,-0.418 -0.455,-0.987 -0.455,-1.709 0,-0.847 0.288,-1.47 0.866,-1.87 0.577,-0.401 1.56,-0.602 2.944,-0.602 1.647,0.023 3.038,0.145 4.17,0.36 l -0.188,1.888 c -0.755,-0.011 -1.865,-0.016 -3.329,-0.016 -0.665,0 -1.07,0.014 -1.219,0.042 -0.149,0.029 -0.224,0.135 -0.224,0.318 0,0.033 0.003,0.068 0.009,0.103 0.006,0.035 0.017,0.062 0.034,0.085 0.018,0.024 0.035,0.043 0.052,0.061 0.017,0.018 0.043,0.034 0.077,0.052 0.034,0.018 0.068,0.034 0.103,0.052 0.034,0.017 0.083,0.034 0.146,0.051 0.062,0.018 0.119,0.032 0.172,0.043 0.052,0.012 0.123,0.029 0.214,0.052 0.092,0.022 0.172,0.046 0.24,0.068 l 2.06,0.55 c 0.778,0.218 1.339,0.513 1.683,0.884 0.344,0.372 0.515,0.918 0.515,1.64 0,1.041 -0.304,1.756 -0.909,2.146 -0.607,0.389 -1.648,0.584 -3.125,0.584 -1.453,0 -2.837,-0.11 -4.153,-0.327 l 0.189,-1.888 c 0.114,0 0.532,0.002 1.253,0.008 0.721,0.007 1.304,0.009 1.75,0.009 0.848,0 1.388,-0.025 1.623,-0.076 0.234,-0.052 0.351,-0.176 0.351,-0.37 0,-0.045 -0.005,-0.085 -0.017,-0.119 -0.012,-0.035 -0.034,-0.069 -0.067,-0.104 -0.035,-0.033 -0.067,-0.059 -0.096,-0.076 -0.029,-0.017 -0.08,-0.037 -0.154,-0.061 -0.074,-0.022 -0.144,-0.043 -0.206,-0.06 -0.062,-0.018 -0.154,-0.043 -0.274,-0.078 -0.122,-0.036 -0.233,-0.071 -0.337,-0.105 z"
         id="path3090"
         style="fill:#ffffff" /><path
         d="m 103.079,99.143 -1.991,-0.549 c -0.835,-0.24 -1.404,-0.569 -1.707,-0.986 -0.303,-0.418 -0.455,-0.987 -0.455,-1.709 0,-0.847 0.289,-1.47 0.867,-1.87 0.578,-0.401 1.559,-0.602 2.943,-0.602 1.647,0.023 3.039,0.145 4.171,0.36 l -0.188,1.888 c -0.756,-0.011 -1.865,-0.016 -3.33,-0.016 -0.663,0 -1.069,0.014 -1.218,0.042 -0.15,0.029 -0.224,0.135 -0.224,0.318 0,0.033 0.002,0.068 0.008,0.103 0.006,0.035 0.018,0.062 0.035,0.085 0.017,0.024 0.033,0.043 0.051,0.061 0.018,0.018 0.043,0.034 0.077,0.052 0.035,0.018 0.068,0.034 0.104,0.052 0.034,0.017 0.083,0.034 0.146,0.051 0.062,0.018 0.12,0.032 0.172,0.043 0.051,0.012 0.123,0.029 0.215,0.052 0.092,0.023 0.171,0.046 0.24,0.068 l 2.06,0.55 c 0.778,0.218 1.339,0.513 1.683,0.884 0.343,0.372 0.515,0.918 0.515,1.64 0,1.041 -0.304,1.756 -0.91,2.146 -0.606,0.389 -1.647,0.584 -3.124,0.584 -1.452,0 -2.838,-0.11 -4.153,-0.327 l 0.188,-1.888 c 0.115,0 0.532,0.002 1.253,0.008 0.721,0.007 1.306,0.009 1.751,0.009 0.847,0 1.388,-0.025 1.622,-0.076 0.234,-0.052 0.353,-0.176 0.353,-0.37 0,-0.045 -0.007,-0.085 -0.018,-0.119 -0.012,-0.035 -0.035,-0.069 -0.069,-0.104 -0.034,-0.033 -0.065,-0.059 -0.094,-0.076 -0.029,-0.018 -0.081,-0.037 -0.155,-0.061 -0.074,-0.022 -0.143,-0.043 -0.205,-0.06 -0.063,-0.018 -0.154,-0.043 -0.275,-0.078 -0.122,-0.036 -0.234,-0.071 -0.338,-0.105 z"
         id="path3092"
         style="fill:#ffffff" /><path
         d="m 112.846,93.427 c 1.682,0 2.869,0.341 3.562,1.021 0.692,0.682 1.038,1.846 1.038,3.493 0,1.636 -0.346,2.789 -1.038,3.459 -0.692,0.669 -1.88,1.003 -3.562,1.003 -1.682,0 -2.87,-0.334 -3.561,-1.003 -0.693,-0.67 -1.039,-1.823 -1.039,-3.459 0,-1.647 0.349,-2.812 1.047,-3.493 0.697,-0.68 1.882,-1.021 3.553,-1.021 z m 0,2.197 c -0.537,0 -0.893,0.151 -1.063,0.454 -0.172,0.305 -0.259,0.925 -0.259,1.863 0,0.927 0.087,1.539 0.259,1.837 0.171,0.298 0.526,0.446 1.063,0.446 0.526,0 0.878,-0.148 1.056,-0.446 0.178,-0.298 0.266,-0.91 0.266,-1.837 0,-0.938 -0.088,-1.559 -0.266,-1.863 -0.178,-0.303 -0.53,-0.454 -1.056,-0.454 z"
         id="path3094"
         style="fill:#ffffff" /></g><g
       transform="translate(-0.0538559,0)"
       id="g3096"><path
         d="m 43.386,29.168 c 6.838,0 11.596,1.598 14.274,4.789 2.678,3.194 4.016,8.992 4.016,17.396 0,8.405 -1.338,14.203 -4.016,17.396 -2.679,3.193 -7.437,4.789 -14.274,4.789 -6.798,0 -11.536,-1.596 -14.214,-4.789 -2.678,-3.193 -4.017,-8.991 -4.017,-17.396 0,-8.404 1.338,-14.202 4.017,-17.396 2.678,-3.191 7.416,-4.789 14.214,-4.789 z m -0.063,9.95 c -1.401,0 -2.41,0.257 -3.028,0.772 -0.618,0.515 -1.082,1.628 -1.391,3.337 -0.309,1.71 -0.463,4.419 -0.463,8.126 0,3.708 0.154,6.417 0.463,8.126 0.309,1.71 0.772,2.823 1.391,3.337 0.618,0.516 1.627,0.772 3.028,0.772 1.483,0 2.543,-0.256 3.183,-0.772 0.637,-0.515 1.112,-1.627 1.42,-3.337 0.309,-1.709 0.464,-4.419 0.464,-8.126 0,-3.707 -0.155,-6.416 -0.464,-8.126 -0.309,-1.709 -0.783,-2.822 -1.42,-3.337 -0.639,-0.515 -1.699,-0.772 -3.183,-0.772 z"
         id="path3098"
         style="fill:#ffffff" /><path
         d="m 85.346,29.168 c 6.838,0 11.595,1.598 14.274,4.789 2.678,3.194 4.016,8.992 4.016,17.396 0,8.405 -1.338,14.203 -4.016,17.396 -2.68,3.193 -7.437,4.789 -14.274,4.789 -6.799,0 -11.536,-1.596 -14.214,-4.789 -2.679,-3.193 -4.017,-8.991 -4.017,-17.396 0,-8.404 1.338,-14.202 4.017,-17.396 2.678,-3.191 7.415,-4.789 14.214,-4.789 z m -0.063,9.95 c -1.4,0 -2.41,0.257 -3.028,0.772 -0.618,0.515 -1.081,1.628 -1.391,3.337 -0.31,1.71 -0.463,4.419 -0.463,8.126 0,3.708 0.153,6.417 0.463,8.126 0.31,1.71 0.772,2.823 1.391,3.337 0.618,0.516 1.628,0.772 3.028,0.772 1.483,0 2.543,-0.256 3.183,-0.772 0.638,-0.515 1.112,-1.627 1.421,-3.337 0.309,-1.709 0.464,-4.419 0.464,-8.126 0,-3.707 -0.155,-6.416 -0.464,-8.126 -0.309,-1.709 -0.783,-2.822 -1.421,-3.337 -0.64,-0.515 -1.699,-0.772 -3.183,-0.772 z"
         id="path3100"
         style="fill:#ffffff" /></g><g
       transform="translate(-0.5868559,0)"
       id="g3102"><path
         d="M 114.747,84.827 H 15.11 c -0.883,0 -1.599,-0.716 -1.599,-1.6 0,-0.883 0.716,-1.599 1.599,-1.599 h 99.637 c 0.882,0 1.599,0.716 1.599,1.599 0,0.884 -0.717,1.6 -1.599,1.6 z"
         id="path3104"
         style="fill:#ffffff" /></g></g></svg>