<?xml version="1.0" encoding="utf-8"?>
<!-- Generator: Adobe Illustrator 16.0.4, SVG Export Plug-In . SVG Version: 6.00 Build 0)  -->
<!DOCTYPE svg PUBLIC "-//W3C//DTD SVG 1.1//EN" "http://www.w3.org/Graphics/SVG/1.1/DTD/svg11.dtd">
<svg version="1.1" id="Layer_1" xmlns="http://www.w3.org/2000/svg" xmlns:xlink="http://www.w3.org/1999/xlink" x="0px" y="0px"
	 width="134.5px" height="134.5px" viewBox="0 0 134.5 134.5" enable-background="new 0 0 134.5 134.5" xml:space="preserve">
<circle fill="none" cx="-209.25" cy="396.75" r="66.75"/>
<g>
	<g>
		<path fill="#FFFFFF" d="M26.807,90.805l-3.098,11.182c-0.059,0.27-0.192,0.484-0.402,0.648c-0.211,0.163-0.455,0.244-0.735,0.244
			h-2.923c-0.28,0-0.525-0.081-0.735-0.244c-0.21-0.164-0.344-0.38-0.402-0.648l-3.098-11.182h3.377l1.855,8.242
			c0.093,0.443,0.175,0.898,0.245,1.364h0.438c0.023-0.233,0.105-0.688,0.245-1.364l1.837-8.242H26.807z"/>
		<path fill="#FFFFFF" d="M39.967,100.148l0.264,2.397c-1.051,0.361-2.409,0.542-4.078,0.542c-1.938,0-3.302-0.466-4.095-1.398
			c-0.793-0.934-1.19-2.551-1.19-4.849c0-2.299,0.396-3.915,1.19-4.849c0.793-0.934,2.157-1.398,4.095-1.398
			c1.47,0,2.742,0.145,3.814,0.438l-0.245,2.414c-1.188-0.034-2.38-0.053-3.569-0.053c-0.725,0-1.21,0.236-1.461,0.709
			c-0.251,0.474-0.376,1.387-0.376,2.739s0.125,2.267,0.376,2.738s0.737,0.709,1.461,0.709
			C37.844,100.289,39.115,100.242,39.967,100.148z"/>
		<path fill="#FFFFFF" d="M45.865,93.938c1.715,0,2.925,0.348,3.631,1.041s1.059,1.881,1.059,3.562c0,1.669-0.353,2.844-1.059,3.526
			c-0.706,0.682-1.916,1.022-3.631,1.022s-2.926-0.341-3.631-1.022c-0.706-0.684-1.06-1.857-1.06-3.526
			c0-1.681,0.356-2.867,1.067-3.562C42.954,94.284,44.161,93.938,45.865,93.938z M45.865,96.178c-0.548,0-0.91,0.153-1.085,0.463
			s-0.263,0.941-0.263,1.898c0,0.943,0.087,1.568,0.263,1.872c0.175,0.304,0.537,0.456,1.085,0.456c0.537,0,0.895-0.152,1.077-0.456
			c0.181-0.304,0.271-0.929,0.271-1.872c0-0.957-0.09-1.59-0.271-1.898C46.76,96.331,46.401,96.178,45.865,96.178z"/>
		<path fill="#FFFFFF" d="M54.545,94.182l0.264,1.276c1.189-1.015,2.402-1.521,3.641-1.521c0.828,0,1.454,0.207,1.881,0.621
			c0.426,0.414,0.639,1.019,0.639,1.812v6.51h-3.186v-5.513c0-0.279-0.053-0.473-0.157-0.577c-0.104-0.104-0.292-0.158-0.561-0.158
			c-0.501,0-1.126,0.152-1.872,0.456v5.792h-3.186v-8.696h2.537V94.182z"/>
		<path fill="#FFFFFF" d="M71.888,95.441l-0.996,0.141c0.104,0.338,0.156,0.711,0.156,1.119c0,1.015-0.318,1.729-0.954,2.145
			c-0.636,0.414-1.747,0.621-3.333,0.621c-0.561,0-1.026-0.023-1.4-0.07c-0.128,0.151-0.151,0.332-0.069,0.543
			c0.082,0.209,0.274,0.332,0.578,0.367l3.167,0.279c0.944,0.082,1.625,0.336,2.039,0.762s0.621,1.059,0.621,1.898
			c0,1.154-0.354,1.926-1.06,2.311c-0.705,0.385-1.963,0.577-3.771,0.577c-1.295,0-2.29-0.087-2.983-0.263s-1.17-0.434-1.427-0.777
			c-0.257-0.345-0.386-0.844-0.386-1.496c0-0.443,0.103-0.809,0.307-1.095c0.205-0.286,0.558-0.539,1.06-0.762
			c-0.396-0.408-0.545-0.896-0.445-1.462c0.099-0.564,0.382-0.971,0.848-1.217c-0.933-0.396-1.398-1.178-1.398-2.345
			c0-1.016,0.324-1.731,0.972-2.151c0.646-0.42,1.771-0.631,3.368-0.631c0.969,0,1.768,0.082,2.397,0.246h2.869L71.888,95.441z
			 M67.32,102.547l-1.837-0.156c-0.281,0.209-0.421,0.459-0.421,0.752c0,0.314,0.113,0.519,0.342,0.611
			c0.227,0.094,0.702,0.141,1.426,0.141c0.759,0,1.261-0.043,1.506-0.131s0.366-0.271,0.366-0.552c0-0.245-0.093-0.405-0.279-0.481
			S67.868,102.594,67.32,102.547z M66.761,97.629c0.514,0,0.863-0.064,1.051-0.191c0.187-0.129,0.279-0.375,0.279-0.735
			c0-0.361-0.094-0.604-0.279-0.728c-0.188-0.121-0.537-0.184-1.051-0.184c-0.524,0-0.885,0.062-1.076,0.184
			c-0.192,0.123-0.288,0.365-0.288,0.728s0.096,0.606,0.288,0.735C65.876,97.564,66.235,97.629,66.761,97.629z"/>
		<path fill="#FFFFFF" d="M79.78,93.938l-0.279,2.922h-0.84c-0.584,0-1.383,0.123-2.398,0.367v5.652h-3.186v-8.697h2.486
			l0.278,1.276c1.132-1.015,2.287-1.521,3.466-1.521H79.78L79.78,93.938z"/>
		<path fill="#FFFFFF" d="M86.36,99.361h-2.607c0.082,0.479,0.248,0.809,0.499,0.988c0.25,0.182,0.655,0.271,1.216,0.271
			c1.062,0,2.199-0.07,3.413-0.211l0.28,1.941c-0.969,0.49-2.316,0.735-4.043,0.735c-1.715,0-2.938-0.36-3.666-1.085
			c-0.729-0.723-1.096-1.865-1.096-3.43c0-1.704,0.359-2.902,1.078-3.598c0.717-0.692,1.928-1.041,3.631-1.041
			c1.527,0,2.631,0.254,3.308,0.762c0.678,0.508,1.021,1.279,1.032,2.318c0.012,0.816-0.217,1.412-0.682,1.785
			C88.256,99.175,87.469,99.361,86.36,99.361z M83.685,97.716h1.783c0.361,0,0.6-0.055,0.709-0.165
			c0.111-0.111,0.166-0.312,0.166-0.604c0-0.338-0.087-0.566-0.262-0.684c-0.176-0.115-0.484-0.175-0.928-0.175
			c-0.549-0.012-0.922,0.089-1.121,0.298C83.835,96.598,83.719,97.04,83.685,97.716z"/>
		<path fill="#FFFFFF" d="M94.64,99.766l-2.031-0.562c-0.853-0.245-1.433-0.581-1.74-1.007c-0.311-0.426-0.465-1.006-0.465-1.741
			c0-0.862,0.295-1.499,0.885-1.907c0.589-0.408,1.589-0.611,3.002-0.611c1.68,0.021,3.098,0.146,4.252,0.367l-0.191,1.924
			c-0.771-0.012-1.902-0.018-3.396-0.018c-0.676,0-1.092,0.016-1.242,0.044c-0.15,0.029-0.229,0.138-0.229,0.324
			c0,0.034,0.002,0.069,0.01,0.104c0.005,0.035,0.018,0.063,0.035,0.088c0.017,0.023,0.033,0.043,0.053,0.061
			c0.018,0.018,0.043,0.036,0.079,0.055c0.034,0.016,0.069,0.033,0.104,0.051c0.034,0.019,0.084,0.035,0.147,0.054
			c0.063,0.018,0.123,0.032,0.175,0.044c0.053,0.012,0.125,0.027,0.219,0.053c0.094,0.023,0.176,0.046,0.245,0.069l2.101,0.56
			c0.793,0.223,1.365,0.523,1.715,0.901c0.352,0.38,0.525,0.937,0.525,1.672c0,1.062-0.311,1.791-0.928,2.188
			c-0.619,0.396-1.682,0.594-3.186,0.594c-1.481,0-2.895-0.109-4.235-0.331l0.192-1.927c0.115,0,0.543,0.004,1.276,0.011
			c0.735,0.006,1.33,0.008,1.786,0.008c0.863,0,1.414-0.024,1.653-0.078c0.239-0.053,0.358-0.178,0.358-0.376
			c0-0.047-0.007-0.088-0.019-0.123c-0.013-0.035-0.034-0.068-0.069-0.105c-0.035-0.033-0.066-0.061-0.097-0.078
			c-0.03-0.016-0.081-0.036-0.157-0.061c-0.076-0.023-0.146-0.045-0.21-0.062s-0.157-0.045-0.28-0.078
			C94.858,99.834,94.743,99.799,94.64,99.766z"/>
		<path fill="#FFFFFF" d="M104.106,99.766l-2.029-0.562c-0.852-0.245-1.434-0.581-1.741-1.007c-0.31-0.426-0.464-1.006-0.464-1.741
			c0-0.862,0.295-1.499,0.884-1.907s1.589-0.611,3.001-0.611c1.68,0.021,3.098,0.146,4.253,0.367l-0.192,1.924
			c-0.771-0.012-1.901-0.018-3.396-0.018c-0.677,0-1.091,0.016-1.243,0.044c-0.15,0.029-0.227,0.138-0.227,0.324
			c0,0.034,0.003,0.069,0.008,0.104c0.007,0.035,0.02,0.063,0.036,0.088c0.017,0.023,0.034,0.043,0.052,0.061
			s0.044,0.036,0.079,0.055c0.035,0.016,0.069,0.033,0.104,0.051c0.035,0.019,0.084,0.035,0.148,0.054
			c0.064,0.018,0.123,0.032,0.176,0.044s0.125,0.027,0.219,0.053c0.094,0.023,0.174,0.046,0.244,0.069l2.101,0.56
			c0.794,0.223,1.364,0.523,1.716,0.901c0.35,0.38,0.525,0.937,0.525,1.672c0,1.062-0.311,1.791-0.928,2.188
			c-0.619,0.396-1.681,0.594-3.187,0.594c-1.481,0-2.894-0.109-4.235-0.331l0.193-1.927c0.115,0,0.542,0.004,1.277,0.011
			c0.734,0.006,1.33,0.008,1.783,0.008c0.864,0,1.416-0.024,1.654-0.078c0.238-0.053,0.357-0.178,0.357-0.376
			c0-0.047-0.006-0.088-0.017-0.123c-0.012-0.035-0.034-0.068-0.071-0.105c-0.033-0.033-0.065-0.061-0.096-0.078
			c-0.029-0.016-0.081-0.036-0.156-0.061c-0.076-0.023-0.146-0.045-0.211-0.062c-0.063-0.018-0.158-0.045-0.279-0.078
			C104.323,99.834,104.211,99.799,104.106,99.766z"/>
		<path fill="#FFFFFF" d="M114.065,93.938c1.713,0,2.924,0.348,3.631,1.041c0.705,0.693,1.059,1.881,1.059,3.562
			c0,1.669-0.354,2.844-1.059,3.526c-0.707,0.682-1.918,1.022-3.631,1.022c-1.717,0-2.927-0.341-3.633-1.022
			c-0.705-0.684-1.06-1.857-1.06-3.526c0-1.681,0.356-2.867,1.067-3.562S112.36,93.938,114.065,93.938z M114.065,96.178
			c-0.549,0-0.912,0.153-1.086,0.463c-0.176,0.31-0.264,0.941-0.264,1.898c0,0.943,0.088,1.568,0.264,1.872
			c0.174,0.304,0.537,0.456,1.086,0.456c0.535,0,0.895-0.152,1.074-0.456c0.182-0.304,0.271-0.929,0.271-1.872
			c0-0.957-0.09-1.59-0.271-1.898C114.959,96.331,114.601,96.178,114.065,96.178z"/>
	</g>
	<g>
		<path fill="#FFFFFF" d="M48.939,28.417c6.973,0,11.822,1.629,14.555,4.883c2.73,3.256,4.096,9.168,4.096,17.736
			c0,8.57-1.364,14.482-4.096,17.735c-2.731,3.258-7.582,4.885-14.555,4.885c-6.932,0-11.763-1.627-14.492-4.885
			c-2.731-3.253-4.095-9.166-4.095-17.735c0-8.568,1.363-14.48,4.095-17.736C37.177,30.046,42.008,28.417,48.939,28.417z
			 M48.876,38.562c-1.429,0-2.458,0.262-3.088,0.788c-0.63,0.526-1.103,1.66-1.417,3.402c-0.314,1.744-0.473,4.505-0.473,8.285
			c0,3.78,0.156,6.543,0.473,8.286c0.315,1.743,0.788,2.878,1.417,3.402c0.63,0.525,1.659,0.787,3.088,0.787
			c1.512,0,2.593-0.262,3.244-0.787c0.651-0.524,1.135-1.659,1.449-3.402c0.314-1.743,0.474-4.506,0.474-8.286
			c0-3.78-0.158-6.541-0.474-8.285c-0.314-1.742-0.798-2.876-1.449-3.402C51.469,38.824,50.388,38.562,48.876,38.562z"/>
		<path fill="#FFFFFF" d="M71.873,29.3h27.913c1.847,0,3.265,0.641,4.253,1.922c0.985,1.282,1.187,2.763,0.598,4.442L91.595,72.775
			H78.3l10.018-27.597c0.756-2.143,1.555-3.801,2.396-4.978H72.44L71.873,29.3z"/>
	</g>
	<g>
		<path fill="#FFFFFF" d="M118.044,85.168H16.455c-0.9,0-1.63-0.729-1.63-1.631c0-0.9,0.729-1.631,1.63-1.631h101.589
			c0.9,0,1.631,0.73,1.631,1.631S118.944,85.168,118.044,85.168z"/>
	</g>
</g>
</svg>
