<?xml version="1.0" encoding="utf-8"?>
<!-- Generator: Adobe Illustrator 16.0.4, SVG Export Plug-In . SVG Version: 6.00 Build 0)  -->
<!DOCTYPE svg PUBLIC "-//W3C//DTD SVG 1.1//EN" "http://www.w3.org/Graphics/SVG/1.1/DTD/svg11.dtd">
<svg version="1.1" id="Layer_1" xmlns="http://www.w3.org/2000/svg" xmlns:xlink="http://www.w3.org/1999/xlink" x="0px" y="0px"
	 width="134.5px" height="134.5px" viewBox="0 0 134.5 134.5" enable-background="new 0 0 134.5 134.5" xml:space="preserve">
<circle fill="none" cx="-209.25" cy="396.75" r="66.75"/>
<g>
	<path fill="#FFFFFF" d="M21.811,99.205H18.6V87.291h3.211V99.205z"/>
	<path fill="#FFFFFF" d="M36.193,96.511l0.259,2.365c-1.036,0.357-2.377,0.536-4.022,0.536c-1.911,0-3.258-0.46-4.04-1.381
		c-0.784-0.921-1.175-2.516-1.175-4.783c0-2.267,0.391-3.861,1.175-4.782c0.782-0.921,2.129-1.381,4.04-1.381
		c1.45,0,2.704,0.144,3.764,0.431l-0.241,2.383c-1.175-0.035-2.349-0.051-3.522-0.051c-0.714,0-1.195,0.232-1.442,0.698
		c-0.248,0.466-0.372,1.366-0.372,2.702c0,1.335,0.124,2.236,0.372,2.702c0.247,0.466,0.728,0.698,1.442,0.698
		C34.098,96.648,35.353,96.604,36.193,96.511z"/>
	<path fill="#FFFFFF" d="M42.012,90.382c1.692,0,2.886,0.343,3.583,1.027c0.696,0.686,1.045,1.856,1.045,3.514
		c0,1.646-0.349,2.806-1.045,3.479c-0.696,0.674-1.89,1.011-3.583,1.011s-2.887-0.337-3.583-1.011
		c-0.696-0.673-1.044-1.832-1.044-3.479c0-1.657,0.351-2.828,1.054-3.514C39.14,90.725,40.331,90.382,42.012,90.382z M42.012,92.592
		c-0.542,0-0.898,0.152-1.07,0.457c-0.172,0.306-0.259,0.93-0.259,1.874c0,0.933,0.086,1.549,0.259,1.847
		c0.172,0.3,0.529,0.448,1.07,0.448c0.529,0,0.883-0.148,1.062-0.448c0.179-0.298,0.267-0.914,0.267-1.847
		c0-0.944-0.088-1.568-0.267-1.874C42.895,92.744,42.541,92.592,42.012,92.592z"/>
	<path fill="#FFFFFF" d="M50.575,90.624l0.259,1.26c1.174-1.001,2.371-1.502,3.592-1.502c0.817,0,1.436,0.205,1.855,0.613
		c0.42,0.408,0.63,1.004,0.63,1.786v6.424h-3.143v-5.439c0-0.275-0.051-0.466-0.155-0.569c-0.104-0.104-0.288-0.156-0.553-0.156
		c-0.495,0-1.111,0.15-1.847,0.45v5.715h-3.143v-8.581H50.575z"/>
	<path fill="#FFFFFF" d="M67.686,91.867l-0.984,0.138c0.104,0.334,0.155,0.702,0.155,1.105c0,1.001-0.314,1.706-0.941,2.114
		s-1.723,0.613-3.289,0.613c-0.553,0-1.013-0.022-1.381-0.069c-0.127,0.149-0.15,0.328-0.069,0.535s0.27,0.328,0.57,0.363
		l3.124,0.276c0.933,0.08,1.604,0.33,2.012,0.751c0.408,0.42,0.612,1.044,0.612,1.873c0,1.14-0.348,1.899-1.044,2.278
		c-0.697,0.38-1.937,0.57-3.721,0.57c-1.278,0-2.259-0.085-2.944-0.258c-0.685-0.173-1.154-0.431-1.408-0.769
		C58.126,101.049,58,100.557,58,99.913c0-0.438,0.101-0.798,0.302-1.08s0.55-0.531,1.045-0.751c-0.391-0.402-0.538-0.883-0.44-1.441
		c0.097-0.559,0.376-0.959,0.837-1.199c-0.921-0.391-1.382-1.163-1.382-2.314c0-1.001,0.32-1.709,0.958-2.123
		c0.639-0.415,1.747-0.622,3.324-0.622c0.955,0,1.744,0.081,2.365,0.242h2.832L67.686,91.867z M63.179,98.876l-1.813-0.154
		c-0.276,0.207-0.414,0.455-0.414,0.743c0,0.31,0.112,0.511,0.336,0.604c0.224,0.091,0.693,0.138,1.407,0.138
		c0.748,0,1.243-0.043,1.485-0.13c0.242-0.086,0.362-0.267,0.362-0.544c0-0.241-0.092-0.4-0.276-0.475
		C64.083,98.982,63.72,98.922,63.179,98.876z M62.627,94.025c0.506,0,0.851-0.063,1.036-0.19c0.184-0.127,0.276-0.368,0.276-0.725
		c0-0.357-0.092-0.597-0.276-0.717c-0.185-0.121-0.529-0.182-1.036-0.182c-0.518,0-0.873,0.061-1.062,0.182
		c-0.19,0.12-0.284,0.359-0.284,0.717c0,0.356,0.094,0.598,0.284,0.725S62.109,94.025,62.627,94.025z"/>
	<path fill="#FFFFFF" d="M75.472,90.382l-0.275,2.884h-0.83c-0.575,0-1.362,0.12-2.364,0.363v5.576h-3.143v-8.581h2.452l0.275,1.26
		c1.117-1.001,2.257-1.502,3.419-1.502H75.472z"/>
	<path fill="#FFFFFF" d="M81.965,95.734h-2.573c0.08,0.473,0.244,0.798,0.492,0.976c0.246,0.179,0.647,0.268,1.199,0.268
		c1.048,0,2.171-0.069,3.367-0.208l0.276,1.917c-0.955,0.482-2.285,0.726-3.988,0.726c-1.691,0-2.898-0.356-3.617-1.071
		c-0.72-0.713-1.08-1.842-1.08-3.384c0-1.681,0.354-2.862,1.062-3.548c0.708-0.685,1.902-1.027,3.582-1.027
		c1.508,0,2.597,0.251,3.264,0.751c0.668,0.501,1.007,1.264,1.019,2.287c0.012,0.807-0.212,1.395-0.674,1.763
		C83.834,95.55,83.058,95.734,81.965,95.734z M79.322,94.111h1.761c0.357,0,0.59-0.055,0.699-0.164
		c0.11-0.108,0.165-0.308,0.165-0.595c0-0.335-0.087-0.559-0.259-0.675c-0.174-0.114-0.479-0.173-0.916-0.173
		c-0.541-0.012-0.908,0.087-1.104,0.295C79.472,93.006,79.356,93.444,79.322,94.111z"/>
	<path fill="#FFFFFF" d="M90.13,96.132l-2.003-0.553c-0.84-0.241-1.412-0.573-1.717-0.993c-0.306-0.42-0.458-0.993-0.458-1.718
		c0-0.852,0.291-1.479,0.872-1.882c0.582-0.403,1.568-0.604,2.961-0.604c1.658,0.022,3.057,0.145,4.196,0.363l-0.191,1.897
		c-0.759-0.01-1.875-0.017-3.349-0.017c-0.667,0-1.077,0.015-1.227,0.043c-0.149,0.029-0.226,0.136-0.226,0.319
		c0,0.036,0.005,0.07,0.011,0.104c0.006,0.035,0.017,0.064,0.034,0.087c0.017,0.022,0.034,0.043,0.052,0.061
		c0.017,0.018,0.043,0.035,0.077,0.053c0.035,0.017,0.069,0.033,0.104,0.051c0.034,0.018,0.083,0.034,0.147,0.052
		c0.062,0.018,0.12,0.032,0.172,0.043c0.052,0.012,0.123,0.029,0.216,0.053c0.092,0.022,0.173,0.046,0.241,0.068l2.072,0.553
		c0.782,0.22,1.347,0.516,1.692,0.89c0.345,0.374,0.519,0.924,0.519,1.647c0,1.049-0.308,1.768-0.916,2.16
		c-0.611,0.39-1.658,0.586-3.144,0.586c-1.461,0-2.854-0.109-4.178-0.327l0.191-1.9c0.113,0,0.534,0.003,1.26,0.009
		s1.312,0.009,1.761,0.009c0.852,0,1.396-0.025,1.631-0.078c0.236-0.052,0.355-0.176,0.355-0.371c0-0.046-0.007-0.087-0.019-0.12
		c-0.012-0.034-0.033-0.069-0.068-0.104c-0.035-0.034-0.066-0.06-0.095-0.077s-0.081-0.037-0.155-0.06
		c-0.075-0.024-0.145-0.044-0.207-0.062c-0.063-0.018-0.156-0.043-0.277-0.078C90.347,96.201,90.234,96.166,90.13,96.132z"/>
	<path fill="#FFFFFF" d="M99.471,96.132l-2.002-0.553c-0.841-0.241-1.414-0.573-1.719-0.993s-0.457-0.993-0.457-1.718
		c0-0.852,0.29-1.479,0.872-1.882c0.58-0.403,1.567-0.604,2.961-0.604c1.656,0.022,3.056,0.145,4.195,0.363l-0.19,1.897
		c-0.759-0.01-1.876-0.017-3.35-0.017c-0.667,0-1.076,0.015-1.225,0.043c-0.149,0.029-0.225,0.136-0.225,0.319
		c0,0.036,0.002,0.07,0.009,0.104c0.005,0.035,0.018,0.064,0.034,0.087s0.033,0.043,0.052,0.061
		c0.017,0.018,0.044,0.035,0.077,0.053c0.034,0.017,0.069,0.033,0.104,0.051c0.035,0.018,0.084,0.034,0.146,0.052
		c0.063,0.018,0.121,0.032,0.174,0.043c0.05,0.012,0.123,0.029,0.216,0.053c0.093,0.022,0.171,0.046,0.241,0.068l2.071,0.553
		c0.783,0.22,1.348,0.516,1.693,0.89c0.344,0.374,0.517,0.924,0.517,1.647c0,1.049-0.304,1.768-0.915,2.16
		c-0.61,0.39-1.657,0.586-3.143,0.586c-1.461,0-2.854-0.109-4.179-0.327l0.191-1.9c0.114,0,0.535,0.003,1.261,0.009
		c0.724,0.006,1.312,0.009,1.761,0.009c0.852,0,1.396-0.025,1.631-0.078c0.236-0.052,0.354-0.176,0.354-0.371
		c0-0.046-0.007-0.087-0.018-0.12c-0.012-0.034-0.035-0.069-0.068-0.104c-0.034-0.034-0.067-0.06-0.095-0.077
		c-0.03-0.018-0.082-0.037-0.155-0.06c-0.076-0.024-0.146-0.044-0.208-0.062s-0.155-0.043-0.277-0.078
		C99.687,96.201,99.574,96.166,99.471,96.132z"/>
	<path fill="#FFFFFF" d="M109.295,90.382c1.692,0,2.886,0.343,3.582,1.027c0.698,0.686,1.045,1.856,1.045,3.514
		c0,1.646-0.347,2.806-1.045,3.479c-0.696,0.674-1.89,1.011-3.582,1.011c-1.691,0-2.888-0.337-3.582-1.011
		c-0.697-0.673-1.045-1.832-1.045-3.479c0-1.657,0.351-2.828,1.053-3.514C106.423,90.725,107.614,90.382,109.295,90.382z
		 M109.295,92.592c-0.541,0-0.898,0.152-1.07,0.457c-0.173,0.306-0.259,0.93-0.259,1.874c0,0.933,0.086,1.549,0.259,1.847
		c0.172,0.3,0.529,0.448,1.07,0.448c0.528,0,0.883-0.148,1.062-0.448c0.178-0.298,0.267-0.914,0.267-1.847
		c0-0.944-0.089-1.568-0.267-1.874C110.178,92.744,109.823,92.592,109.295,92.592z"/>
</g>
<g>
	<path fill="#FFFFFF" d="M38.02,47.375v-0.249c-2.238-0.249-3.917-1.336-5.036-3.263c-1.119-1.927-1.678-4.113-1.678-6.558
		c0-2.859,0.424-5.076,1.273-6.651c0.85-1.574,2.476-2.787,4.88-3.637c2.403-0.848,5.843-1.274,10.319-1.274
		c4.517,0,7.978,0.426,10.381,1.274c2.403,0.851,4.02,2.063,4.849,3.637c0.828,1.575,1.243,3.792,1.243,6.651
		c0,2.445-0.56,4.631-1.679,6.558c-1.118,1.927-2.797,3.015-5.035,3.263v0.249c5.222,0.457,7.833,4.269,7.833,11.438
		c0,4.393-1.192,7.418-3.574,9.075c-2.384,1.657-7.056,2.507-14.018,2.549c-6.837,0.041-11.479-0.788-13.924-2.487
		c-2.446-1.698-3.668-4.744-3.668-9.137C30.187,51.644,32.798,47.833,38.02,47.375z M47.903,51.354c-2.073,0-3.44,0.332-4.103,0.995
		c-0.663,0.663-0.995,1.989-0.995,3.978c0,1.907,0.321,3.161,0.964,3.761c0.642,0.602,1.999,0.901,4.071,0.901
		c1.99,0,3.295-0.3,3.917-0.901c0.621-0.6,0.932-1.854,0.932-3.761c0-2.03-0.311-3.366-0.932-4.009
		C51.136,51.675,49.851,51.354,47.903,51.354z M47.841,34.446c-1.823,0-3.025,0.29-3.604,0.87c-0.581,0.581-0.871,1.844-0.871,3.792
		c0,1.658,0.3,2.746,0.901,3.264c0.6,0.519,1.833,0.777,3.699,0.777c1.781,0,2.931-0.248,3.449-0.746
		c0.518-0.497,0.777-1.595,0.777-3.294c0-1.947-0.279-3.211-0.839-3.792C50.794,34.736,49.623,34.446,47.841,34.446z"/>
	<path fill="#FFFFFF" d="M100.741,36.249H83.086l-0.373,4.476l7.957,1.057c7.874,0.954,11.811,5.74,11.811,14.359
		c0,9.408-5.407,14.111-16.224,14.111c-4.351,0-9.656-0.373-15.914-1.12l1.119-10.007c5.636,0.249,9.387,0.373,11.251,0.373
		c2.403,0,4.04-0.269,4.912-0.808c0.869-0.538,1.366-1.554,1.49-3.046c0.125-1.45-0.248-2.476-1.118-3.077
		c-0.87-0.6-2.404-0.984-4.6-1.15l-7.833-0.994c-1.119-0.166-2.02-0.642-2.704-1.43c-0.684-0.787-1.005-1.719-0.963-2.797
		l1.182-19.581h28.096L100.741,36.249z"/>
</g>
<g>
	<path fill="#FFFFFF" d="M116.672,81.731H16.446c-0.889,0-1.608-0.721-1.608-1.609s0.72-1.608,1.608-1.608h100.226
		c0.887,0,1.607,0.72,1.607,1.608S117.559,81.731,116.672,81.731z"/>
</g>
</svg>
