<?xml version="1.0" encoding="utf-8"?>
<!-- Generator: Adobe Illustrator 16.0.4, SVG Export Plug-In . SVG Version: 6.00 Build 0)  -->
<!DOCTYPE svg PUBLIC "-//W3C//DTD SVG 1.1//EN" "http://www.w3.org/Graphics/SVG/1.1/DTD/svg11.dtd">
<svg version="1.1" id="Layer_1" xmlns="http://www.w3.org/2000/svg" xmlns:xlink="http://www.w3.org/1999/xlink" x="0px" y="0px"
	 width="134.5px" height="134.5px" viewBox="0 0 134.5 134.5" enable-background="new 0 0 134.5 134.5" xml:space="preserve">
<g>
	<defs>
		<circle id="SVGID_1_" cx="67.75" cy="67.75" r="66.75"/>
	</defs>
	<clipPath id="SVGID_2_">
		<use xlink:href="#SVGID_1_"  overflow="visible"/>
	</clipPath>
	<g clip-path="url(#SVGID_2_)">
		<path fill="#FFFFFF" d="M58.576,147.195c0-3.066,0.976-70.191,0-73.099c-0.666-1.985-4.382-4.696-5.048-6.681
			c-0.909-2.709-3.146-10.789-3.146-10.789s2.109,1.695,2.972,1.783c1.331,0.134,3.709-1.749,5.047-1.783
			c1.407-0.037,3.935,1.783,5.343,1.783c1.407,0,3.975-2.12,5.343-1.783c1.224,0.302,2.4,3.082,3.563,3.562
			c1.001,0.415,8.445-0.035,9.05-0.64c0.917-0.917,0-5.191,0-5.191s-6.849,0.853-8.906,0c-0.438-0.181-1.162-0.905-1.343-1.343
			c-0.312-0.752-0.312-2.501,0-3.253c0.282-0.681,1.39-1.849,2.089-2.088c3.16-1.085,10.275-1.279,13.362,0
			c1.649,0.682,4.365,3.397,5.048,5.045c0.967,2.332,0.966,7.764,0,10.096c-1.526,3.686-9.755,7.597-11.282,11.282
			c-1.25,3.017,0,69.833,0,73.099c0,0-4.64-2.02-9.343,1.178C68.069,150.588,58.576,147.195,58.576,147.195z"/>
		<path fill="#FFFFFF" d="M86.843,43.461c-1.196,1.196-5.567,1.196-6.763,0c-1.367-1.367-0.628-5.904,0-7.732
			c0.183-0.532,1.072-1.376,1.591-1.591c0.892-0.369,2.967-0.37,3.859,0c0.429,0.178,1.162,0.874,1.313,1.313
			C87.494,37.344,88.259,42.045,86.843,43.461z"/>
		<path fill="#FFFFFF" d="M77.136,43.461c-1.196,1.196-5.567,1.196-6.763,0c-1.648-1.648-0.757-7.12,0-9.324
			c0.183-0.532,1.072-1.376,1.591-1.591c0.892-0.369,2.967-0.369,3.859,0c0.43,0.178,1.163,0.874,1.313,1.312
			C77.915,36.13,78.833,41.764,77.136,43.461z"/>
		<path fill="#FFFFFF" d="M67.188,50.929h-6.763c0,0-1.235-11.607,0-15.201c0.183-0.532,1.072-1.376,1.591-1.591
			c0.892-0.369,2.968-0.369,3.859,0c0.43,0.178,1.163,0.874,1.313,1.313C68.442,39.111,67.188,50.929,67.188,50.929z"/>
		<path fill="#FFFFFF" d="M60.424,37.567h6.763c0,0,1.455,11.69,0,15.201c-0.215,0.519-1.072,1.375-1.591,1.59
			c-0.892,0.37-2.966,0.37-3.858,0c-0.43-0.177-1.136-0.883-1.314-1.313C58.941,49.471,60.424,37.567,60.424,37.567z"/>
		<path fill="#FFFFFF" d="M57.637,48h-6.763c0,0-0.834-7.839,0-10.266c0.183-0.532,1.072-1.376,1.592-1.591
			c0.892-0.368,2.966-0.37,3.858,0c0.428,0.178,1.161,0.874,1.312,1.313C58.495,39.949,57.637,48,57.637,48z"/>
		<path fill="#FFFFFF" d="M50.875,40.424h6.763c0,0,1.104,8.881,0,11.548c-0.215,0.519-1.071,1.376-1.591,1.591
			c-0.892,0.369-2.966,0.369-3.858,0c-0.43-0.179-1.136-0.884-1.314-1.313C49.742,49.52,50.875,40.424,50.875,40.424z"/>
		<g>
			<path fill="#FFFFFF" d="M39.808,138.801c0-1.87-0.595-37.01,0-38.782c0.407-1.212,2.673-2.864,3.08-4.075
				c0.554-1.652,1.919-6.581,1.919-6.581s-1.287,1.035-1.813,1.087c-0.812,0.082-2.263-1.066-3.079-1.087
				c-0.858-0.021-2.4,1.087-3.259,1.087c-0.858,0-2.425-1.292-3.259-1.087c-0.747,0.184-1.464,1.879-2.174,2.173
				c-0.611,0.254-5.152-0.021-5.521-0.39c-0.56-0.561,0-3.167,0-3.167s4.178,0.521,5.433,0c0.267-0.11,0.708-0.552,0.819-0.819
				c0.19-0.459,0.19-1.525,0-1.984c-0.172-0.417-0.848-1.128-1.275-1.274c-1.927-0.662-6.268-0.779-8.15,0
				c-1.006,0.416-2.663,2.072-3.08,3.077c-0.59,1.423-0.589,4.736,0,6.158c0.931,2.248,5.951,4.635,6.882,6.883
				c0.762,1.84,0,36.79,0,38.782c0,0,2.831-1.231,5.699,0.719C34.017,140.871,39.808,138.801,39.808,138.801z"/>
			<path fill="#FFFFFF" d="M22.565,81.331c0.729,0.729,3.396,0.729,4.125,0c0.833-0.834,0.384-3.602,0-4.717
				c-0.112-0.324-0.654-0.84-0.971-0.971c-0.544-0.226-1.81-0.226-2.354,0c-0.261,0.108-0.708,0.533-0.801,0.802
				C22.168,77.6,21.702,80.467,22.565,81.331z"/>
			<path fill="#FFFFFF" d="M28.487,81.331c0.729,0.729,3.396,0.729,4.125,0c1.006-1.005,0.462-4.343,0-5.688
				c-0.111-0.324-0.654-0.839-0.971-0.971c-0.544-0.225-1.81-0.225-2.354,0c-0.263,0.108-0.709,0.534-0.801,0.801
				C28.011,76.859,27.451,80.296,28.487,81.331z"/>
			<path fill="#FFFFFF" d="M34.555,85.886h4.125c0,0,0.754-7.079,0-9.271c-0.111-0.324-0.654-0.84-0.971-0.971
				c-0.544-0.226-1.81-0.226-2.354,0c-0.262,0.108-0.709,0.533-0.801,0.802C33.79,78.678,34.555,85.886,34.555,85.886z"/>
			<path fill="#FFFFFF" d="M38.681,77.736h-4.125c0,0-0.887,7.13,0,9.271c0.131,0.317,0.654,0.84,0.971,0.971
				c0.544,0.226,1.809,0.226,2.353,0c0.262-0.108,0.693-0.54,0.802-0.801C39.585,84.997,38.681,77.736,38.681,77.736z"/>
			<path fill="#FFFFFF" d="M40.38,84.1h4.125c0,0,0.509-4.781,0-6.262c-0.111-0.324-0.654-0.84-0.971-0.971
				c-0.544-0.225-1.81-0.225-2.354,0c-0.261,0.109-0.708,0.533-0.801,0.801C39.857,79.189,40.38,84.1,40.38,84.1z"/>
			<path fill="#FFFFFF" d="M44.506,79.479H40.38c0,0-0.673,5.417,0,7.044c0.131,0.317,0.653,0.839,0.971,0.972
				c0.544,0.225,1.81,0.225,2.354,0c0.262-0.108,0.692-0.54,0.801-0.802C45.197,85.026,44.506,79.479,44.506,79.479z"/>
		</g>
		<g>
			<path fill="#FFFFFF" d="M109.416,141.238c0-1.541-0.49-30.486,0-31.946c0.335-0.999,2.202-2.36,2.537-3.357
				c0.457-1.361,1.581-5.421,1.581-5.421s-1.06,0.853-1.494,0.896c-0.669,0.067-1.864-0.879-2.536-0.896
				c-0.708-0.018-1.978,0.896-2.685,0.896c-0.707,0-1.998-1.064-2.685-0.896c-0.615,0.151-1.206,1.548-1.791,1.79
				c-0.503,0.209-4.244-0.018-4.547-0.321c-0.461-0.462,0-2.608,0-2.608s3.441,0.429,4.475,0c0.22-0.091,0.583-0.455,0.675-0.675
				c0.156-0.379,0.156-1.257,0-1.635c-0.142-0.344-0.699-0.93-1.05-1.05c-1.587-0.546-5.163-0.643-6.714,0
				c-0.829,0.343-2.193,1.707-2.537,2.534c-0.486,1.172-0.485,3.901,0,5.073c0.767,1.852,4.902,3.817,5.669,5.67
				c0.628,1.515,0,30.305,0,31.946c0,0,2.332-1.015,4.694,0.592C104.646,142.943,109.416,141.238,109.416,141.238z"/>
			<path fill="#FFFFFF" d="M95.212,93.897c0.601,0.602,2.797,0.602,3.398,0c0.687-0.687,0.316-2.967,0-3.885
				c-0.092-0.268-0.539-0.692-0.8-0.8c-0.448-0.186-1.49-0.186-1.939,0c-0.215,0.089-0.583,0.439-0.66,0.66
				C94.885,90.824,94.501,93.186,95.212,93.897z"/>
			<path fill="#FFFFFF" d="M100.09,93.897c0.6,0.602,2.797,0.602,3.398,0c0.829-0.827,0.381-3.577,0-4.685
				c-0.092-0.268-0.539-0.691-0.8-0.8c-0.448-0.185-1.491-0.185-1.938,0c-0.217,0.09-0.584,0.44-0.66,0.66
				C99.698,90.214,99.237,93.045,100.09,93.897z"/>
			<path fill="#FFFFFF" d="M105.089,97.649h3.398c0,0,0.621-5.831,0-7.637c-0.092-0.268-0.539-0.692-0.8-0.8
				c-0.448-0.186-1.491-0.186-1.939,0c-0.216,0.089-0.584,0.439-0.66,0.66C104.458,91.712,105.089,97.649,105.089,97.649z"/>
			<path fill="#FFFFFF" d="M108.487,90.937h-3.398c0,0-0.731,5.873,0,7.638c0.108,0.262,0.539,0.691,0.8,0.8
				c0.448,0.186,1.49,0.186,1.938,0c0.216-0.09,0.571-0.445,0.661-0.66C109.232,96.918,108.487,90.937,108.487,90.937z"/>
			<path fill="#FFFFFF" d="M109.887,96.179h3.398c0,0,0.419-3.938,0-5.158c-0.092-0.268-0.539-0.692-0.8-0.8
				c-0.448-0.185-1.491-0.185-1.939,0c-0.215,0.09-0.583,0.439-0.66,0.66C109.457,92.134,109.887,96.179,109.887,96.179z"/>
			<path fill="#FFFFFF" d="M113.286,92.372h-3.398c0,0-0.555,4.462,0,5.802c0.108,0.262,0.539,0.691,0.8,0.801
				c0.448,0.186,1.491,0.186,1.938,0c0.216-0.089,0.571-0.445,0.66-0.66C113.855,96.941,113.286,92.372,113.286,92.372z"/>
		</g>
	</g>
</g>
<circle fill="none" cx="-209.25" cy="396.75" r="66.75"/>
</svg>
