<svg xmlns="http://www.w3.org/2000/svg" width="719.096" height="670.532"><g><path fill="#087030" d="M243.37 0c-4.2.03-9.4 1.66-20.43 5.97-13.16 5.14-18.83 6.54-26.35 6.37-13.9 2.9-36.72-7.6-45 6.5.05 1.67.1 3.35.18 5.2.32 7.5.56 13.62.7 18.84 0 .1 0 .26 0 .37-.03 9.5-.12 15.47-.3 19.34 0 .05 0 .13 0 .18-.36 3.5-1 5.74-1.9 7.53-2.33 4.58-7.16 8.2-10.9 8.2-1.43 0-4.1-1.84-7.13-4.97-10.3-10.64-23.64-13.3-35.8-7.15-3.43 1.72-7.5 3.15-9.08 3.15-4.77 0-13.3 3-15.9 5.6-2.4 2.4-2.44 2.64-1.75 13.8l.72 11.38-3.9 6.3-3.88 6.28.06 10.56c.03 5.82.45 16.68.9 24.12.78 12.52.7 13.87-1.2 18.16-1.9 4.26-2.77 4.97-10.42 8.62-4.6 2.2-14.07 6.08-21.1 8.6-18.05 6.48-22.3 8.77-23.65 12.84-.6 1.83-1 7.38-.84 12.3.26 8.68.16 9.16-3.06 14.17C.3 227 0 228.1 0 235.25c0 13.67 6.1 26.1 18.87 38.44 8.3 7.98 16.04 13.03 24.16 15.77 6.9 2.32 9.25 1.84 16.1-3.34 1.9-1.44 4.2-2.6 5.15-2.6 2.58 0 7.4 6.42 9.84 13.13 1.72 4.7 3.02 6.46 6.3 8.62 3.7 2.46 5 2.75 13.2 2.75 8.6 0 9.34.17 14.04 3.28 6 4 14.9 6.8 17.65 5.58 1.08-.48 3.86-4.42 6.17-8.75 5.1-9.56 8.6-12.02 15.94-11.22 2.62.3 6.75 1.4 9.16 2.48 4.77 2.1 5.85 4.13 7.13 13.56.57 4.26 1.46 5.78 6.67 11.22 8.64 9 19.55 15.9 42.85 27.15 28.35 13.7 32.5 16.44 39 25.98 9.4 13.82 15.94 19.27 26.65 22.16 3.7 1 4.57 1.83 7.4 7.15 3.66 6.83 6.27 9.28 15.73 14.8 8.38 4.9 11.4 8 10.72 12.57 0 0 0 .02 0 .03-.06.37-.15.76-.25 1.16-.32 1.2-.85 2.52-1.6 4-4.42 8.83-5.08 12.06-3.75 18.03 1 4.45 1.94 5.97 5.7 9.08 4.9 4.07 6.6 6.74 9.43 14.94 2.8 8.18 5.23 10.85 15.47 16.87 6.4 3.76 11.07 7.38 14.56 11.34 3.17 3.6 8.14 7.63 13 10.53 7.2 4.3 9.55 6.32 9.38 9.03-.02.2-.06.44-.1.66-.08.43-.22.88-.4 1.37-.55 1.45-1 5.2-1 8.38v.1c-.12 1.28-.1 2.22.1 3.06.2 2.7 1 3.63 3.9 6.22 1.58 1.42 2.94 3.1 3.6 4.3.03.1.08.2.1.3.1.23.18.46.23.68.02.1.04.2.06.28-.05 1.1-1.36 3.9-2.97 6.3-1.65 2.4-3.28 5.97-3.64 7.9-1.5 8.13-4.83 11.44-15.44 15.5-6.24 2.38-7.9 3.66-16.53 12.8-12.6 13.34-18.44 21.14-18.44 24.66 0 3.44 1.26 4.5 7 5.97 8.4 2.14 9.9 3.12 13.1 8.7 3.75 6.56 6 7.8 18.74 10.27 15 2.9 20.24 6.3 25.34 16.47 1.14 2.27 2.75 4.92 3.6 5.88.84.96 2.05 1.75 2.68 1.75 2.62 0 10.85-6.48 24.38-19.12 26.5-24.77 33.22-35.54 42.16-67.87 9.1-32.92 12.88-42.14 20.96-51.2 6.83-7.62 15.23-12.92 29.13-18.36 7.67-3 13.24-5.92 16.5-8.63 5.65-4.7 8.08-5.82 29.9-14 18.28-6.84 33.4-13.74 35.32-16.1.72-.87 2.12-6.1 3.1-11.65 1.5-8.57 2.27-10.7 5.18-14.32 11.48-14.27 31.05-41.35 33.25-46 3.8-8.04 6.83-20.03 6.97-27.62.06-3.66-.23-17.2-.66-30.13-.48-14.7-.43-24 .17-24.87.67-.97 3.63-1.43 9.84-1.57 10.3-.22 13.45-1.52 18.7-7.66 7.16-8.37 8.93-11.72 10.3-19.7.75-4.24 1.84-8.92 2.45-10.4.6-1.47 5.3-6.33 10.47-10.78 10.27-8.85 12.42-11.94 17.97-25.97 6.3-16 7.6-21.57 8.17-35.2.48-11.2.3-13.36-1.65-19.2-1.53-4.6-3.2-7.5-5.6-9.6-3.83-3.37-12.97-6.48-21.96-7.5-10.37-1.2-16.6-3.5-24.7-9.22-15.34-10.82-38.52-20.04-62.3-24.8-22.44-4.46-38.78-5.52-51.38-3.36l-6.94 1.2-8.43-7.95c-14.2-13.38-25.55-18.82-39.24-18.88-9.67-.04-12.83 1.22-29.63 12-6.44 4.13-14.2 8.4-17.25 9.46-10.02 3.52-19.72 2.1-25.87-3.78-3.9-3.75-3.68-8.84.8-18.15 3.36-7.04 3.48-7.65 2.86-15.1-.7-8.56-1.54-6.62 8.35-20.22 4.52-6.2 2.55-14.3-5.78-23.58-6.33-7.06-8.15-10.5-10.96-20.97-2.4-8.9-5.02-13.22-8-13.22-1.04 0-4.55 2.18-7.8 4.88-4.43 3.7-6.87 6.83-9.95 12.76-5.72 11-9.8 16.26-13.87 17.97-4.07 1.7-4.22 1.68-19.2-4.3-8.82-3.5-13.05-4.63-19.1-5.05-10.38-.7-16.08.78-30.36 7.9-13.62 6.8-25.32 10-37.25 10.2-11.04.17-13.44-1.36-13.43-8.63 0-2.87-.93-11.97-2.04-20.22-1.1-8.25-2.26-17.6-2.57-20.75-.7-7-2.66-9.57-8.2-10.8-1.35-.32-2.63-.5-4.03-.48zM460.2 91.1c-.56 0-1.17 0-1.86.03-7.32.13-12.98 3.1-19.22 10.12-4.2 4.72-8.9 13.34-8.93 16.28-.03 2.2 2.83 5.98 5.33 7.06 3.25 1.4 11.87.34 16.47-2 9.07-4.63 15.64-12.93 16.78-21.22.53-3.86.27-4.92-1.9-7.44-2.02-2.34-2.85-2.83-6.7-2.85zm-35.64 514.53c.14.4-.18 1.33-.78 2.6.3-.86.55-1.72.78-2.6z"/><path fill="#1b140d" stroke="#000" stroke-width="2.4" d="M243.03.7c-5.76 0-8.57.74-19.72 5.18-17.4 3.95-32.3 5.68-43.77 5-6.67-1.36-15.6-.86-19.66 1.15-4.47-.14-6.75.9-7.4 2.38-.04 0-.08 0-.13 0 0 .1 0 .2 0 .3-.12.4-.1.82 0 1.27 0 3.8-.03 7.28-.03 12.72 0 38.78 0 39.02-2.27 42.64-2.86 4.6-6.25 6.85-10.34 6.85-2.5 0-4.46-1.2-8.82-5.36-10.4-9.92-24.04-12.38-34.5-6.25-2.88 1.68-7 2.94-11.38 3.5-7.05.88-11.86 2.76-14.16 5.53-1 1.2-1.1 4.12-.6 12.3.67 10.33.6 10.94-1.86 15.26-6.37 11.18-6.82 14.97-4.44 39.27 1.43 14.68.45 22.4-3.38 26.5-3.2 3.43-10.87 7.1-28.75 13.72-18.1 6.7-22.55 8.8-23.96 11.43-.56 1.06-1.03 6.62-1.03 12.34 0 9.9-.14 10.58-3.02 14.94-11.7 17.7 5 50.66 32.63 64.4 10.66 5.3 13.64 5.38 20.8.45 3.22-2.23 6.3-4.06 6.86-4.06 2.14 0 7.7 7.26 9.75 12.74 3.84 10.24 7.07 12.25 19.73 12.25 8.33 0 9.15.18 14.1 3.36 5.75 3.7 12.55 6 16.28 5.47 1.82-.25 3.3-2.02 6.07-7.3 5.26-10.02 8.4-12.55 15.6-12.54 3.92 0 7.36.76 10.87 2.4 5.48 2.54 5.82 3.23 7.87 15.9.48 2.9 2 5.2 6.45 9.56 8.9 8.75 20.28 15.77 46.34 28.53 26.54 13 29.62 15.3 39.37 29.68 5.82 8.6 11.2 12.7 20.75 15.88 5.6 1.86 6.4 2.5 8.3 6.43 3.3 6.75 7.67 11.07 16.26 16.03 12.12 7 13.15 9.62 8.03 20.9-4.76 10.52-3.47 19.78 3.45 24.5 4.24 2.9 5.57 4.92 8.53 13.16 3.38 9.38 6 12.3 16.53 18.52 6.5 3.8 11 7.36 14.48 11.34 2.84 3.27 7.82 7.43 11.4 9.53 9.3 5.43 10.95 7.18 10.2 10.96-.35 1.72-.9 5.42-1.22 8.22-.57 4.95-.44 5.23 3.97 10.2 5 5.62 5.13 7.3 1.12 12.7-1.22 1.66-2.94 5.48-3.8 8.5-.88 3.03-2.3 6.54-3.17 7.8-1.7 2.4-8.45 6.1-14.9 8.2-4.2 1.37-8.58 5.5-21.7 20.45-8.85 10.1-11.47 14.64-10 17.3.54.97 4.26 2.88 8.3 4.26 6.88 2.34 7.57 2.85 11.24 8.36 4.5 6.76 6.42 7.78 19.12 10.16 14.94 2.8 19.9 6.3 25.88 18.22 3.2 6.37 5.2 6.7 11.84 1.97 7.23-5.13 32.5-29.47 38.7-37.24 9.94-12.5 15.95-26.4 22.46-52.1 2.85-11.25 8.8-28.93 11.6-34.4 6.98-13.7 19.32-22.66 43.12-31.35 2.55-.92 7.33-3.84 10.62-6.5 4.07-3.26 9.17-6.02 15.88-8.58 37.78-14.42 45.52-17.78 48.5-21.16.9-1.02 2.16-5.25 2.8-9.37.66-4.14 1.6-8.7 2.07-10.2.5-1.5 7.12-10.94 14.76-21 18.28-24.06 21.48-28.97 24.47-37.3 4.5-12.6 5.2-19.4 3.9-38.7-1.43-21.37-1.43-32.58-.06-36.53l1.04-3.06 9.76-.37c11.9-.48 14.13-1.65 21.6-11.56 4.04-5.4 5.44-8.2 5.96-11.9 1.48-10.54 3.37-14.98 8.34-19.6 18.33-17.06 16.7-15.02 22.1-28.13 7.25-17.65 9.18-25.98 9.4-40.78.17-10.97-.08-12.92-2.1-17.34-4.5-9.9-9.07-12.52-27.02-15.44-14.22-2.3-15.07-2.65-25.25-9.62-10.14-6.94-17.44-10.64-30.8-15.66-22.42-8.43-51.1-13.42-71.9-12.5-6.43.28-12.92.84-14.4 1.22-2.4.6-3.62-.2-10.5-6.75-14.32-13.63-26.5-19.7-39.54-19.75-8.76-.03-13.33 1.78-28.6 11.37-6.78 4.26-13.87 8.4-15.74 9.18-11 4.6-21.85 3.8-28.28-2.1-3.17-2.9-3.6-3.9-3.53-7.7.06-2.53 1.26-6.94 2.85-10.35 4.03-8.66 4.5-10.83 3.34-15.35-1.52-5.96-.25-10.34 4.74-16.47 5.43-6.65 6.8-10 5.94-14.55-.97-5.15-3-8.55-9.12-15.22-5.92-6.43-7.4-9.23-9.38-17.84-.7-3.04-2.13-7.43-3.22-9.76-1.6-3.46-2.47-4.25-4.65-4.25-4.32 0-13.1 8.55-17.6 17.18-7.5 14.4-11.73 18.8-18 18.8-1.4 0-7.8-2.06-14.2-4.6-21.4-8.45-28.98-8.06-51.3 2.6-10.82 5.2-16.62 7.33-22.86 8.48-15.07 2.77-25.73 1.6-27.5-3-.35-.9-.63-4.68-.63-8.4 0-3.74-.7-10.8-1.55-15.7-.86-4.88-1.94-13.05-2.38-18.18-1.04-12.2-2.3-13.68-11.84-13.7zm-1.28 9.08c2.82.02 3.53 2.6 3.3 9.2-.1 3.68.7 11.76 1.8 17.93 1.08 6.17 1.96 14.15 1.96 17.76v6.56l8.76 4.1c6.8 3.18 10.3 4.2 15.75 4.6 10 .7 23.55-3.04 39.36-10.92L325 52.84h10.66c13.67.03 21.92 1.68 30.2 5.97C372 62 373 62.2 378.32 61.57c8.15-.95 10.82-3.64 18.23-18.37 2.36-4.7 11.36-18.34 12.7-19.23 1.8-1.2 2.7.74 4.08 8.7 1.76 10.08 5.4 16.76 12.76 23.67 5.8 5.46 6.02 5.84 5.5 9.7-.35 2.63-2.38 6.63-5.9 11.68-5.3 7.6-5.35 7.73-5.1 14.37.24 6.12-.1 7.4-3.75 14.46-6.2 12-5.54 17.23 3.32 26.1 7.98 7.97 12.28 9.8 21.8 9.37 7.08-.32 8.67-.82 18.1-5.65 5.7-2.92 13.05-7.34 16.32-9.82 11.68-8.83 16.88-10.02 30.22-6.87 11 2.58 17.43 6.57 24.63 15.27 7.48 9.05 10.06 10.76 14.77 9.75 8.8-1.9 26.54-1.7 38.94.44 21.26 3.66 37.02 9.23 67.2 23.75 18.78 9.05 20.5 9.68 34.27 12.4 8 1.6 15.86 3.58 17.47 4.42 3.4 1.76 6.4 7.16 7.32 13.2.35 2.3-.02 9-.85 14.92-3.4 24.2-8.27 35.5-19.64 45.5-14.95 13.15-17.9 17.48-19.94 29.47-1.48 8.65-2.68 11-8.2 16.08-7.53 6.95-9.07 7.65-15.55 7.06-3.63-.33-6.94-.04-8.88.78-4.87 2.04-5.53 7.25-4.73 37.47.76 28.15-.02 36.9-4.06 45.74-5.44 6.4-10.3 15.94-17.02 20.34-4.76 16.87-14.92 31.38-28.44 41.4.54.15 1.33.37 1.72.48 4.04 1.07 4.25 1.28 4.25 4.84 0 5.17-2.1 7.7-7.7 9.22-7 1.9-22.2 9.18-26.7 12.8-2.55 2.08-7.77 4.42-15.24 6.8-9.36 2.96-12.5 4.5-17.63 8.6-7.76 6.2-7.55 6.07-17.22 8.7-12.2 3.33-23.47 10.55-29.7 19.04-2.73 3.7-8.1 16.4-13.13 31.03-.93 2.7-1.97 6-3 9.36.15 1.85.25 3.72.25 5.63 0 22-10.3 40.74-24.72 47.83-6.96 9.32-14.83 18.74-21.8 25.66-4.2 4.13-8.46 8-9.5 8.55-2.62.96-3.4 3.84-6.1 3.9-1.16 0-2.2-.38-3.04-1-.03.02-.06.04-.1.04-.64 0-3.1-2.24-5.46-4.98-4.88-5.67-10.9-9.52-19.63-12.53-4-1.4-5.4-1.93-6.1-3.42-.42.05-.86.1-1.3.1-2.4 0-4.68-.68-6.7-1.85-.3.3-.66.4-1.1.47-2.45.35-2.63.14-4.3-5.03-1.52-4.75-5.02-7.5-10.6-8.34-2.4-.37-5.17-1.23-6.15-1.94-1.65-1.22-1.52-1.7 2.2-7.14 4.8-7.02 14.5-17.46 18.87-20.37 2.68-3.28 6.52-5.32 10.77-5.32.26 0 .52.04.78.06.9-1.6 2.3-3.23 4.03-4.63 4.9-3.92 6.57-7 7.5-13.86.56-4.12 1.3-5.67 3.44-7.2 2.22-1.57 3.03-3.4 4.47-10.08.02-.16.05-.26.08-.4-1.16-1.26-2.16-2.7-3-4.3-.8-.35-2.07-1.34-3.3-2.62-3.68-3.8-3.92-6.07-1.48-15.22 2.3-8.63 1.38-11.17-5.3-14.43-2.83-1.4-6.8-3.96-8.8-5.73-2-1.78-9.44-7.07-16.56-11.75-7.1-4.68-14.04-10-15.4-11.78-1.36-1.8-3.67-6.25-5.13-9.9-1.45-3.66-4.63-9.5-7.08-12.98-2.45-3.48-4.9-8.02-5.47-10.1-.9-3.32-.65-4.5 2.2-10.4 5.9-12.28 3.4-20.96-7.9-27.12-1.38-.77-2.6-1.56-3.64-2.28h-.02c-7.5-3.08-13.26-10.22-15.13-19.04-5.24 1.7-7.23 1-13.06-2.78-7.03-4.53-13.9-12.08-18.54-20.37-5.52-9.87-8.46-12.64-17.97-17L231 351l-2.22-4.84c-10.04-2.38-18.37-5.8-24-9.9-4.26-1.26-10.28-4.02-14.15-6.7-9-6.23-16.97-17.72-20.47-29.53-1.83-6.14-7-10.2-15.16-11.9-6.62-1.38-18.62-.55-21.75 1.5-1.16.76-3.76 4.53-5.78 8.37-2.02 3.84-4.38 7.26-5.25 7.6-4.25 1.62-8.42.35-13.88-4.2-2.65-2.2-3.6-2.4-9-1.9-10.97 1-13.93-.7-19.06-11-3.83-7.7-7.2-12.12-10.6-13.88-3.97-2.05-5.26-1.83-10.34 1.75-6.15 4.34-13.93 5-21.37 1.8-11.65-5.03-27.46-27.63-28.88-41.33-.54-5.2-.37-5.82 2.56-9.15 3.05-3.5 3.15-3.84 3.15-13.17v-9.6l3.36-3.18c3.95-3.73 13.58-8.88 26.15-14.03 4.96-2.03 11.58-5.08 14.73-6.75 11.03-5.86 14.8-16.37 13.2-36.78-1.6-20.03-1.2-26.86 1.86-32.73 4.34-8.35 5.1-13.75 3.2-22.85-1.96-9.56-1.7-9.94 8.4-11.5 4.06-.62 10.26-2.2 13.77-3.53 4.28-1.62 7.82-2.46 11.06-2.4 5.4.07 10 2.6 15.78 8 7.23 6.7 13.73 7.66 20.6 3.05 2.1-1.4 4.1-2.36 4.82-2.34 2.1-2.5 4.62-4.76 7.5-6.74 0 0 0-.03 0-.04-2.2-19.35-2.77-31.17-2.8-47.43-.02-1.95-.03-3.78 0-5.54 2.42 1.22 10.5 1.9 20.42 1.9 8.14.83 16.2-.82 23.47-.87 10.45-.06 19.74-2.1 27.58-6.04 3.47-1.76 8.1-3.82 10.3-4.6 1.46-.5 2.63-.78 3.57-.78zm215.72 81.4c-2.78.13-5.72.77-8.16 1.88-4.8 2.2-13.48 11.38-16.4 17.4-2.85 5.9-2.7 9.12.54 11.67 3.4 2.68 11.3 2.74 17.06.12 5.68-2.58 13.2-9.7 15.44-14.56 2.5-5.47 2.44-11.95-.13-14.5-1.3-1.3-4.04-2-7.14-2-.4 0-.8-.03-1.2 0zm-.3 4.32c.24 0 .5 0 .74 0 2.36.1 4.16 1.2 4.97 3.34 2.16 5.68-5.85 15.17-17.12 20.3-5.06 2.28-5.77 2.4-8.2 1-3.95-2.32-1.16-10.67 5.82-17.36 4.8-4.58 9.93-7.12 13.8-7.28z" stroke-linecap="round" stroke-linejoin="round"/></g></svg>