<svg xmlns="http://www.w3.org/2000/svg" width="44.741" height="287.591"><path fill="#fff" d="M40.3 118.6c2.33 55.03-6.94 99.72-15.48 99.72s-8.4-35.48-17.68-89.77C-9.1 33.45 15.77-4.05 28.7 6.75c3.45 2.88.48 20.35 3.62 42.5 2.98 21 6.86 43.38 7.97 69.36z"/><path fill="#1b140d" d="M29.58 0c-2.78.14-8.25 1.86-12.25 3.88-.03.02-.06.07-.1.1-3.2 2.47-6.28 6.05-9.2 10.6C-3.1 32.07.6 56.1.58 68.05c0 21.2-.03 30.86-.4 35.88v15.44s.05-.02.06 0c.36.38 2.32 11.03 4.38 23.68 2.8 17.18 3.87 27.06 4.2 39.03l.45 15.24c.47 2.73.9 5.5 1.25 8.38 0 0 0 .02 0 .03.52 10.98-1.26 34.24-.28 50.72-1.77 7.1-1.8 14.23-2.5 20.5 2.48 8.03 5.18 9.92 14.78 10.4 10.77 1.16 16.26-2.4 15.78-8.12-.37-4.54.23-8.27 1.7-12.2 1.18-3.17 2.62-10.52 3.2-16.4.16-1.45.34-2.86.5-4.2-.73-5.02-1.27-10.25-1.62-15.67-1-16.6-.1-33 2.66-48.1-.78-4.06-1.3-10-1.75-19.62-.1-42.4-5.8-85-8.38-126.22C33.52 15.6 32.2 1.26 31.22.28c-.03 0-.05-.02-.07-.03-.48-.1-.96-.2-1.44-.25zm-4.03 5.72c1.34-.06 1.54.62 1.9 3 .3 1.85.8 10.32 1.13 18.84.34 8.53 1.7 33.73 3.04 56 5.6 93.63 5.85 98.93 4.87 101.72-1.13 3.2-5.08 4.36-6.07 1.78-.35-.9-1.78-10.18-3.22-20.62-1.5-11-3.04-18.86-3.62-18.7-.63.2-.8 5.22-.5 13.8.28 7.42.5 16.87.5 21 0 7.4-.03 7.5-2.7 7.8-3.28.38-2.38 4.57-8.2-37.8-6.63-48.28-7.93-62.4-8-87.48-.07-24.32 1.38-35.14 6.06-45.62 3-6.73 8.67-12.6 13.03-13.47.75-.15 1.34-.23 1.78-.25z"/></svg>