<svg xmlns="http://www.w3.org/2000/svg" width="479.466" height="514.92"><g><g><path fill="#fff" d="M53.8.46C45.6 3.56 37 5.2 28.13 5.2c-2.86 0-5.7-.16-8.5-.5 0 .06.02.12.03.17-10.97 8.17-18.28 22.56-18.28 39 0 15.8 15.6 24.25 25.88 32.57C32.9 81 30.8 89.4 38.05 89.94c4.64 19.86 19.9 48.3 28.67 74.74 4.57 13.8 5.87 22.37 8.57 29.95 3.88 10.92 26.64 10.23 32.08 16.78 14.6 17.58 15.02 32.63 22.02 29.43 3.3-1.5 28.63 7.83 33.72 4.54 4.46-2.9 3.03-45.93 1.78-53.66-1.13-7-26.16 4.28-31.34-6.55-7.57-15.84-14.1-25.84-21.16-41.32-13.7-30-29.38-55.08-42.56-69.46 6.08-8.14 9.78-18.8 9.78-30.5 0-19.98-10.75-37-25.8-43.4zm235.48 105.9c-31.3 0-56.66 26.4-56.66 58.97 0 32.58 17.2 119.72 48.47 119.72 9.08 0 18.37-7.36 26.96-18.6 6.36 43.65 28.5 75.85 54.8 75.85 31.3 0 56.64-45.5 56.64-101.62 0-56.12-25.34-101.63-56.63-101.63-7.1 0-13.9 2.38-20.15 6.66-7.77-22.92-28.77-39.33-53.44-39.33zm-34.6 272.72c-.54 0-1.1.02-1.65.04-4.4.14-8.78 1.1-11.38 3.06-4.8 3.64-2.45 10.93-7.56 19.03-5.44 8.62-7.46 21.47-17.7 31.63-10.65 10.6-10.67 37.77-7.84 47.85 3.15 11.22 10.24 5 18.47 8.94 5.68 2.72 17.65 23.17 24 19.75 11.1-6 16.47-41.48 23.06-60.57 10.35-30 6.08-60.4-9.54-67.87-2.34-1.12-6.03-1.8-9.88-1.85z"/><path fill="#bd6935" d="M288.88 68.76c-29.26 0-53.17 13-54.7 29.34-34.63 3.36-59.06 11.2-58.6 20.32 1.03 21.6 17.8 26.94 42.02 26.1 6.5-.24 13.53-1.27 20.93-2.26 9.72.08 20.67-.5 32.38-1.8.27 0 .53.03.8.05 38.7 3.02 63-4.7 75.2-14.43 16.53-4.77 28.38-10.58 30.6-18.37.9-3.1.45-6.17.07-8.44-1.27-7.48-16.4-11.73-38.82-12.25-8.6-10.74-27.67-18.24-49.87-18.24z"/><path fill="#d92919" d="M394.25 291.95c0 8.18-3.82 15.45-9.8 20.2-3.65 5.53-9.4 9.6-16.1 11.1-4.57 3.92-10.52 6.26-17.03 6.26-14.4 0-26.1-11.54-26.1-25.8 0-4.63 1.26-8.97 3.4-12.72-3.33-.06-5.48-.44-6-1.34-3.16-5.57-17.28 9.75-21.96 9.75-14.75 0-58.94 41.06-58.94 74.7 0 2.57 4.25 11.3 11.03 12.4 5.67.94 19.18 6.76 19.38 8.76.64 6.35 1.6 11.45 2.84 15.53 1 3.26-.14 38.1 1.22 40.18.68 1.05-3.67 8.62-8.5 14.3-5.68 6.68-12.76 10.37-12.3 12.23.95 3.76-10.58 32.16-2.02 29.54 5.6-1.7 31.92-34.4 33.78-34.4 2.96 0 11.98-14.92 17.53-29.66 6.05-16.5 9.73-34.62 16.7-54.16 6.52-26.78 37.75-25.3 51.67-39.3 6.45-6.56 7.4-2.03 13.18-7.95 30.7-12.58 60.56-27.17 58.38-32.9-5.67-9.88-50.43-31.86-50.38-16.72z"/><path fill="#b4aaa0" d="M178.66 206.73c-16.1 0-8.34 18.07-15.38 28.62-3.1 4.65-14.28 5.6-14.28 11.22 0 12 8.02 22.5 20 28.38-.35 2.58-.56 5.23-.56 7.94 0 4.8-4.67 9.16-3.9 14.3 1.1 7.56 5.73 12.38 9.15 19.4 2.8 5.73 4.28 12.6 8.77 17.6 12.32 13.42 28.2 20.87 41.7 33.56 1.55 1.7 3.23 3.27 5.02 4.53 1.33.94-3.96 15.64-2.5 16.12.78.25 6.94 10.43 9 7.93 3.23-3.93 2.72-21.37 4.08-21.8 2.16-.7 3.88-13.63 9.93-26.3 8.86-18.54 22.72-38.78 25.58-37.74 14.28 5.2 35.2-40.37 26.97-47.33-5.68-4.8-36.4 24.16-36.15 22.62 1.94-12.53-10.76-25.43-10.47-33.35 1.54-41.84-17.84-26.1-35.94-20.44-5.76-2.9-12.65-5.6-19.07-9-8.78-4.63-13.38-16.27-21.97-16.27zm93.6 219.62c-3.4.17-8.32 7.75-11.54 18.16-3.55 11.5-3.68 22.07-.3 23.64 3.36 1.56 8.97-6.5 12.52-17.97 3.55-11.5 3.68-22.03.3-23.6-.3-.14-.64-.23-1-.22zm-64.73 11.4c-6.2 0-16.62 11.2-17.8 17.35-5.64.7-9.9 4.24-9.9 8.54 0 4.8 5.3 8.68 11.9 8.68.93 0 1.84-.1 2.7-.25.85 7.92 5.3 13.97 10.7 13.97 6 0 10.84-7.44 10.84-16.62 0-5.4-1.7-10.15-4.28-13.2.23-1.05.33-2.2.33-3.5 0-5.78 2.1-14.96-4.5-14.96z"/><path fill="#1b140d" d="M39.26.17c-3.48.46-7.04.7-10.67.7-8.8 2.06-13.5.4-18.03 6.95l-2.5 3.64c-2.63 3.83-5.33 9.08-6 11.66C.12 30.44-.54 42.57.42 53.15c.74 8.18 1.28 10.1 3.44 12.68C19 79.2 26.17 76.95 33.43 94.18l4.07 9.22c8.13 18.46 21.2 52.8 23.68 62.1 2.64 9 11.03 17.22 11.35 26.96-.6 5.8-.47 5.1 4.43 7.58 21.57 10.97 22.23 14.6 31.32 28 5.82 8.6 11.2 12.7 20.75 15.9 5.6 1.85 6.43 2.5 8.34 6.43 3.28 6.75 7.63 11.07 16.22 16.03 12.1 7 13.14 9.62 8.02 20.9-4.77 10.52-3.48 19.78 3.44 24.5 4.24 2.9 5.57 4.92 8.53 13.16 3.37 9.4 5.98 12.33 16.52 18.53 6.48 3.8 11 7.35 14.47 11.33 2.83 3.27 7.8 7.43 11.4 9.54 9.3 5.43 10.94 7.2 10.18 10.96-.34 1.72-.9 5.42-1.2 8.22-.58 4.95-.45 5.23 3.95 10.2 5 5.62 5.14 7.3 1.13 12.7-1.22 1.66-2.9 5.48-3.78 8.5-.87 3.03-2.3 6.54-3.2 7.8-1.7 2.4-8.44 6.12-14.9 8.2-4.2 1.37-8.57 5.5-21.68 20.45-8.86 10.1-11.48 14.64-10 17.3.53.97 4.25 2.88 8.28 4.26 6.9 2.35 7.58 2.86 11.25 8.37 4.5 6.76 6.42 7.78 19.12 10.16 14.94 2.8 19.9 6.28 25.88 18.2 3.2 6.38 5.2 6.74 11.84 2 7.23-5.13 32.5-29.5 38.7-37.27 9.94-12.5 15.95-26.4 22.46-52.1 2.85-11.24 8.8-28.93 11.6-34.4 6.98-13.7 19.32-22.65 43.12-31.35 2.55-.93 7.32-3.85 10.62-6.5 4.07-3.26 9.17-6.03 15.88-8.6 37.78-14.4 45.52-17.77 48.5-21.15.9-1.02 2.16-5.25 2.8-9.37.66-4.13 1.6-8.7 2.07-10.2.48-1.48 7.1-10.93 14.75-21 7.72-10.14 12.64-16.8 16.1-21.83-2.1-4.8-3.68-9.87-4.7-15.16-.62-1.6-1.32-3.6-2.1-6.06-9.04-29-23.58-65.54-31-77.93-13.12-21.98-22.86-31.85-43.8-44.28-11.34-6.74-14.82-10.03-17.56-16.67-2.93-7.12-11.8-11.65-28.27-14.46-7.48-1.28-10.97-2.43-14.85-4.9-20.73-13.25-49.44-20.36-65.06-16.14-13.64 3.7-22.76 9.03-34.5 20.16-3.57 3.38-7.98 6.9-9.78 7.83-1.8.93-9.9 3.44-18 5.57-18.76 4.93-27.53 8.28-32.1 12.18-8.3 7.1-10.6 17.7-5.5 25.07 3.12 4.5 9.34 9.74 14.88 12.56 4.7 2.4 24.68 7.88 32.22 8.85 2.88.37 5.63 1.17 6.1 1.78.46.62 1.4 5.4 2.06 10.63.66 5.22 3.45 18.4 6.22 29.3 4.77 18.83 4.94 19.97 3.4 22.32-5.27 8.05-20.5 9.5-32.97 3.16-2.23-1.14-10.75-8.93-19.03-17.37-12.16-12.42-16.1-15.8-20.84-17.97-4.84-2.2-6.57-2.53-10-1.88-6.86 1.3-14.27.94-16.94-.8-1.8-1.2-2.95-3.47-4.22-8.45-2.53-9.94-2.96-10.93-14.53-32.8-7.43-14.04-13.47-23.9-20.26-33C79.1 83.63 75.97 73.4 80.72 51.92c3.03-13.73 2.4-24.48-1.94-33.28-3.8-7.72-7.3-10.97-16.16-14.9-12.3-7-11.58-1.68-23.36-3.58zm4.96 4.95c1.1-.05 2.45 0 4.03.12C63.3 6.38 75.62 19.78 75.62 35.02c0 2.74-1.6 11.07-3.53 18.53C69 65.53 68.7 67.8 69.5 72.8c1.98 12.27 6.83 21.04 29.03 52.66 15.57 22.18 26.14 41.48 28 51.06.63 3.27 1.37 6.93 1.62 8.13.55 2.58 8.88 7.6 15.47 9.3 3.34.88 5.94 2.66 10.03 6.85 5.53 5.67 7.97 10.77 7.97 16.66 0 9.2-7.16 18.4-17.34 22.28-7.87 3-9.4 2.83-16.28-1.62-7.02-4.54-13.9-12.1-18.53-20.38-5.52-9.86-8.46-12.64-17.97-17l-8.7-3.97-3.55-7.78c-1.96-4.3-4.68-10.67-6.03-14.17-1.36-3.5-4.56-11.32-7.13-17.37-4.43-10.4-8.66-21.88-19.23-52-5.68-16.2-6.46-23.65-3.34-31.97 1.2-3.2 2.63-10.54 3.22-16.42.6-5.84 1.47-11.38 1.97-12.3 1.4-2.63 1.12-17.4-.35-18.57-.7-.54-2.9-1.3-4.9-1.65-5.36-.96-6.22-2.5-5.6-10.28.56-6.93 1.5-8.98 6.35-9.15zM22.47 7.05c.25 0 .52 0 .78 0 4.53.17 8.86 3.7 9.9 9.25 1.12 5.96.4 6.65-7.25 6.78l-6.78.13 4.5.92c2.48.5 7.88 1.57 12 2.37 8.08 1.56 11 3.72 11 8.12 0 3.46-2.05 3.8-11.3 1.96-8.9-1.76-17.25-2.14-14.7-.68.83.47 3.53 1.15 6 1.53 7.98 1.22 15.86 3.72 17.53 5.56 1.5 1.65 1.5 2-.03 4.3-2.34 3.58-3.8 3.85-11.5 2.1-3.77-.86-8.58-1.42-10.7-1.22-4.65.43-3.1 1.1 6.7 2.9 7.3 1.34 7.5 1.48 7.5 4.3 0 2-.88 3.52-2.84 5-2.27 1.68-4.53 2.13-11.5 2.36-4.77.16-9.2-.08-9.88-.53-2.36-1.6-4.53-8.85-5.03-16.8-.9-14.34 3.92-31.3 10.35-36.35 1.62-1.27 3.43-1.9 5.25-2zm265.65 64.57c17.46 0 28.85 2.77 35.25 8.62 4.2 3.85 3.13 5.04-13 14.06-27.74 15.52-41.47 20.7-60.25 22.7-14.6 1.54-14.22 1.75-12.5-6.8 2.84-14.1 5.24-20.28 9.8-25.37 8.3-9.23 20.6-13.2 40.7-13.2zm55.3 20.43c.95 0 1.92.03 2.92.07 9.02.3 10.53.66 17.34 4.03 8 3.95 12.52 7.86 11.66 10.1-.3.75-4.57 2.82-9.5 4.58-11.52 4.12-19.23 8.8-26.72 16.16-10.7 10.5-19.3 12.4-48.15 10.8-13.98-.78-19.54-.66-29.07.57-6.48.83-17.85 2.2-25.28 3-26.7 2.9-28.62 2.86-37-.3-14.14-5.3-20.08-9.6-21.6-15.6-1.96-7.85 8.67-16.34 26.8-21.42 10.1-2.83 24.58-4.5 26.33-3.06 1.9 1.57.16 6.65-3.65 10.58-2.94 3.04-6.03 4.53-18.16 8.85-4.35 1.55-6.72 3.83-6.72 6.4 0 2.03 4.2 2.18 20.66.7 58.8-5.33 52.9-4.2 67.4-13.1 30.82-18.9 38.7-22.47 52.75-22.38zm-68.55 50.13c7.8-.07 15.9.4 18.06 1.3 1 .43 2.96 3.27 4.32 6.35 1.36 3.1 3.78 7.3 5.4 9.32 3.52 4.4 3.9 10.1 1.28 18.8-1.33 4.44-1.68 10.64-1.84 32-.28 37.28-2.02 44.1-14.07 54.85-3.1 2.76-8.23 6.4-11.4 8.1-3.2 1.7-6.3 3.06-6.88 3.06-1.54 0-2.46-2.07-6.53-14.72-3.67-11.4-4.43-17.85-2.57-21.34 1.42-2.64 7.62-5.66 18.94-9.2 10.54-3.28 15.02-5.3 15.02-6.77 0-1.63-5.3-1.08-8.5.87-5.92 3.62-14.92 6.38-21 6.44-9.08.1-16.66-4.58-20.84-12.87-1.65-3.28-7.64-29.5-9.72-42.63-.67-4.25-1-11.2-.72-15.44.4-6.4.86-8 2.72-9.5 3.1-2.5 15.97-6.42 25.9-7.87 3.14-.46 7.73-.7 12.4-.75zm4.25 11.65c-.5 0-1.02.05-1.53.1-3.47.7-7.17 4.46-5.6 7 .85 0 4.14-2.62 4.9-2.1.1 2.18 1.88 3.9 4.07 3.9 2.24 0 4.06-1.82 4.06-4.08 0-.07-.03-.13-.03-.2.6-.14 1.2-.13 1.72.04.5 0 1 .1 1.4.24 5.08 5.4 4.8-3.16-4.28-4.62-1.68-.1-3.2-.3-4.72-.3zm-30.3.75c-4.86-.02-10.03 1.44-11.98 4.32-.1.4 6.26-.3 7.5.53 0 .02 0 .04 0 .06 0 2.1 1.7 3.8 3.78 3.8 2.1 0 3.8-1.7 3.8-3.8 0-.1 0-.2-.02-.3.48-.13.94-.24 1.28-.24 1.43 0 1.55 1.3.97 11.25-.6 10.26-1.28 12.66.75 15.5 3.7 5.18 7.93 5.37 14.53-.05 7.83-3.95 8.8-4.55 10.9-.13 2.93 6.12 1.55 6.94-12.02 7.06-15.86-.2-19.8 3.24-19.8 5.32 0 1.25 28.36.82 33-.47l3.37-2.63-.62-4.65c-1.36-10.07-6.17-12.58-17.78-9.22-4.3 1.24-8.48 2-9.32 1.7-1.92-.75-1.96-4.33-.1-14.1.8-4.2 2.22-8.52 1.92-9.32-.76-3.07-5.3-4.6-10.16-4.62zm112.5 4.38c1.2 0 2.5 1.23 3.5 3.28 2.6 5.47 6.4 9.27 18.36 18.34 16.3 12.37 19.26 17.43 18.16 31.1-.65 8.13-5.7 18.6-12.84 26.62-6.44 7.22-18.26 15.07-26.53 17.63-7.9 2.43-12.73 2.56-17.16.37-6.43-3.17-12.16-14.9-15.74-32.22-1.94-9.37-2.28-26.74-.6-29.87 1.38-2.55 4.1-2.84 6.3-.83 0 .02 0 .04 0 .06 0 2.26 1.8 4.1 4.05 4.1 2.26 0 4.1-1.84 4.1-4.1 0-.3-.06-.62-.12-.9 2.66-1.77 5.67.32 8.15-1.63.27-1.2-1.93-4.4-5.65-7.16-5.18-3.83-7.55-4.93-4.9-8.94 2.4-3.64 18.52-15.84 20.93-15.84zm-25.67 24.16c4.2 0 9.97 2.5 9.97 4.46 0 1-1.24 1.34-4.25 1.25-7.27-.2-10.25-1.17-10.25-3.37 0-1.58.77-2.07 3.72-2.3.27-.04.53-.05.8-.04zm44.03 3.03c-6.76.12-15.14 2.38-13.34 9.1.8.67 1.44.9 4.88-.3 2.04 0 3.28.5 4.56 1.95-.08.3-.13.62-.13.97 0 2.26 1.82 4.1 4.07 4.1 2.24 0 4.06-1.84 4.06-4.1 0-.24-.06-.46-.1-.7 2.23-1.2 6.4 2.02 8.16 1.26-4.08-4.72-10.4-5.45-16.47-5.47-4.03 0-4.07-1.03.78-3.2 2-.68 6.15-.82 7.47-1.1 2.76-.62 2.23-1.67 1.85-2-1.46-.36-3.53-.56-5.8-.5zM347.4 199.3c-.25 0-.56.28-.9.82-2.13 3.35-.96 15.5 1.9 17.3 3.03 1.93 17.32-.8 18.2-3.5.32-1-3.2-.88-8.13-.4-8.66.85-9.9-1.9-9.6-9.03.18-4.3-.7-5.2-1.47-5.2zm-90.3 3.28c-3.34.02-6.48.2-8.8.7-1.35.47-2.78 2.28-1.43 2.93-.2 1.04 5.58.02 6.35.92.43.5.2 1.84.4 2.34.26.7-.4 4.05-.2 4.44 3.33 1.8 2.98-1.3 4.67-4.6 1.56-1.1 6.35-1.63 10.96-2.28 2.08-.24 11.05.63 10-3.62-1.36-.55-4.55-.15-6.06-.25-3.55-.46-10.36-.58-15.9-.57zm-82.3 5.6c2.96-.08 5.24 8.07 7.23 25.72 1.5 13.24 2.28 15.37 5.5 14.8 1.87-.32 2.92-4.4 3.72-14.5.6-7.65.8-8.24 2.87-8.24 6.07 0 10.5 8.68 10.5 20.6 0 7.15.62 9.4 2.63 9.4 2.35 0 3.53-5.04 3.18-13.5-.3-7.44-.17-8 1.7-8 1.56 0 2.03.76 2.24 3.5 1.5 19.35 7.7 33.5 17.3 39.56 3.2 2.02 3.95 3.05 3.95 5.6 0 3.74 3.07 8.94 15.78 26.7 9.5 13.3 9.57 13.4 7.94 16-9.84 15.76-23.72 53-23.72 63.64 0 2.4-.38 4.62-.84 4.9-.46.3-2.26-.95-4-2.74-3.67-3.8-3.9-6.08-1.47-15.22 2.3-8.64 1.4-11.18-5.3-14.44-2.82-1.38-6.8-3.95-8.78-5.72-2-1.77-9.45-7.07-16.57-11.75-7.1-4.7-14.04-10-15.4-11.8-1.36-1.78-3.67-6.24-5.13-9.9-1.46-3.65-4.64-9.48-7.1-12.97-2.44-3.48-4.9-8.02-5.46-10.1-.9-3.32-.65-4.5 2.2-10.4 5.9-12.27 3.4-20.96-7.9-27.12-3.43-1.87-6.24-3.96-6.24-4.62 0-.65 2.23-3.42 4.97-6.12 7.58-7.47 13.94-24.63 14-37.78 0-3.45.46-4.96 1.62-5.4.2-.1.4-.1.6-.1zm176.13 16.15c-2.2.05-5.57-.04-7.1.6-4.53 1.32-4.32 4.5-1.46 5.47 2.03.38 1.9 2.23.85 2.87-.64.13-1.2.4-1.7.85-2.2 2-2.26 4.35 1.88 6.25 2.18 1 6.82 1.68 12.44 1.4 8.55-.43 13.85-2.23 17.7-6.34l2.86-3.03-4.03-3.16c-5.62-4.4-14.85-5.04-21.44-4.9zm-110.28 1.7c.85-.03 3.42 1.84 5.7 4.18 3.9 4.02 4.22 4.83 5.8 14.26 2.2 13.06 5.98 27.65 8.47 32.53 2.13 4.17 2.6 13 1.35 26.2-.42 4.44-1.08 6.76-1.9 6.76-2.16 0-6.8-8.16-11.98-20.97-4.98-12.34-5.76-13.43-13.35-18.35-3-1.95-3.94-3.77-8.28-16.2-2.7-7.7-4.78-15.1-4.63-16.46.22-1.97 2.04-3.47 8.78-7.23 4.68-2.6 9.2-4.72 10.03-4.75zm110.5 2.84c2.27-.03 4.53.17 5.7.15 3.7-.04 6.14.38 7.8.88 1.84.54 2.75.77 3.44 1.47 1.52 1.53 1.6.46-.13 1.37-3.25 1.7-13.62 2.4-18.75 1.25-1.64-.38-2.9-.64-3.97-.76-1.6-3.64 2.13-4.33 5.9-4.37zm42.88 12.65c.14-.02.27 0 .37 0 .12.02.2.05.28.13.52.5 1.43 8.1 2.04 16.87 1 14.66.94 16.72-.9 25.6-2.73 13.08-6.4 20.9-12.26 26.18-5.38 4.84-14.25 9.86-22.56 12.72-6.75 2.32-19.27 2.56-24.07.47-1.75-.77-4.45-3.3-6-5.63-2.5-3.8-2.8-5.15-2.78-12.35.04-7.82.2-8.4 5.78-19.37 3.28-6.44 6.3-13.97 7-17.47l1.25-6.16 8.54-1.12c15.1-2 26.98-7.18 38.2-16.63 2.3-1.9 4.12-3.07 5.1-3.25zm-95.88 23.44c1.5 0 1.64.73 1.03 6.06-.37 3.34-.9 6.6-1.15 7.25-.26.65-6.05 3.78-12.88 6.94-15.25 7.07-18.22 7.34-15.93 1.38.83-2.18 26.85-21.62 28.93-21.62zm-4.6 21.1c2.08-.12 3.33.4 3.76 1.52 1.27 3.3-1.5 6.53-13.52 15.85-6.78 5.25-13.2 9.53-14.25 9.53-1.74 0-1.9-.78-1.9-8.47 0-9.94-.57-9.3 13.62-14.92 5.6-2.2 9.65-3.4 12.3-3.53zm26.2 6.1c.23-.03.44-.03.62 0l2.75.3.53 11.62c.5 10.66.77 12.03 3.5 16.5 7.04 11.53 24.2 13.8 42.66 5.63 5.7-2.5 16.07-10.72 20.82-16.46 1.93-2.33 5.46-6.37 7.88-9 5.82-6.34 5.6-6.34 27.62.03 3.85 1.1 8.9 2.54 11.25 3.16 4.04 1.07 4.25 1.3 4.25 4.84 0 5.18-2.1 7.7-7.72 9.22-7 1.9-22.2 9.17-26.68 12.8-2.56 2.07-7.78 4.4-15.25 6.78-9.36 2.98-12.5 4.5-17.63 8.6-7.76 6.2-7.55 6.08-17.22 8.72-12.2 3.33-23.48 10.55-29.72 19.03-2.72 3.7-8.1 16.4-13.12 31.03-3.53 10.26-8.66 28.4-8.7 30.66-.08 7.7-23.17 40.6-40.58 57.84-4.2 4.14-8.45 8-9.5 8.56-3.2 1.7-3.4-1.45-.94-14.25 2.05-10.65 2.6-12.1 5.22-14.1 7.88-6 10.2-8.47 12.78-13.62 5.4-10.8 5.92-17.9 3.5-46.1-.8-9.42.3-10.36 6.25-5.37 5.13 4.3 10.43 6.65 12.85 5.72 2.8-1.08 1.42-3.1-4.9-7.18-16.9-10.94-21.5-25.37-14.6-45.72 3.04-8.96 3.55-15.44 1.25-16.2-3.1-1-9.32 15.48-11.37 30.17-1.56 11.17-2.27 12.1-7.7 10.65-5.58-1.5-9.3-4.87-12.15-10.94l-2.37-5.03 2.8-8.3c5.58-16.6 13.22-29.5 22.68-38.32 12.68-11.84 43.65-30.73 50.97-31.28zm-75.85 93.8c3.63 0 20 7.65 24.44 11.4 6.34 5.38 5.48 13.37-3.3 31.6-8.18 16.92-13.6 39.36-16.95 70.25-.38 3.4-1.13 5.76-1.82 5.76-.65 0-3.08-2.23-5.44-4.97-4.88-5.68-10.92-9.53-19.66-12.54-5.76-2-6.07-2.26-6.75-6.03-.86-4.83.85-39.57 2.2-44.53.6-2.27 2.42-4.77 4.96-6.82 4.88-3.93 6.56-7.02 7.5-13.87.55-4.1 1.3-5.66 3.43-7.18 2.22-1.58 3.03-3.4 4.47-10.1 2.44-11.34 3.3-12.96 6.9-12.96zm27.88 41.47c.94-.02 1.43 2.84 1.62 8.47.34 9.67-2.06 19.36-6.18 24.93-1.37 1.85-3.43 4.02-4.57 4.82-1.84 1.3-2.12 1.24-2.72-.32-.8-2.08 1.55-11.6 6.63-26.75 2.5-7.45 4.15-11.13 5.22-11.15zm-62.56 11c.5-.04.74.26 1 .94.32.84 0 10.88-.75 22.3-1.3 20.04-1.43 20.8-3.5 21.1-2.44.35-2.62.14-4.3-5.03-1.5-4.74-5-7.5-10.58-8.34-2.42-.36-5.2-1.23-6.17-1.94-1.65-1.2-1.52-1.7 2.2-7.13 5-7.3 15.3-18.3 19.4-20.68 1.36-.8 2.17-1.18 2.7-1.22z"/></g></g></svg>